<?xml version="1.0" encoding="UTF-8" standalone="no"?>
<!DOCTYPE svg PUBLIC "-//W3C//DTD SVG 1.1//EN"
 "http://www.w3.org/Graphics/SVG/1.1/DTD/svg11.dtd">
<!-- Generated by graphviz version 2.36.0 (20140111.2315)
 -->
<!-- Title: models_diagram Pages: 1 -->
<svg width="1862pt" height="1384pt"
 viewBox="0.00 0.00 1862.00 1384.00" xmlns="http://www.w3.org/2000/svg" xmlns:xlink="http://www.w3.org/1999/xlink">
<g id="graph0" class="graph" transform="scale(1 1) rotate(0) translate(4 1380)">
<title>models_diagram</title>
<polygon fill="none" stroke="none" points="-4,4 -4,-1380 1858,-1380 1858,4 -4,4"/>
<!-- Migration -->
<g id="node1" class="node"><title>Migration</title>
<path fill="none" stroke="black" d="M12,-991.5C12,-991.5 172,-991.5 172,-991.5 178,-991.5 184,-997.5 184,-1003.5 184,-1003.5 184,-1100.5 184,-1100.5 184,-1106.5 178,-1112.5 172,-1112.5 172,-1112.5 12,-1112.5 12,-1112.5 6,-1112.5 0,-1106.5 0,-1100.5 0,-1100.5 0,-1003.5 0,-1003.5 0,-997.5 6,-991.5 12,-991.5"/>
<text text-anchor="middle" x="92" y="-1097.3" font-family="Times,serif" font-size="14.00">Migration</text>
<polyline fill="none" stroke="black" points="0,-1089.5 184,-1089.5 "/>
<text text-anchor="start" x="8" y="-1074.3" font-family="Times,serif" font-size="14.00">id :INTEGER</text>
<text text-anchor="start" x="8" y="-1059.3" font-family="Times,serif" font-size="14.00">migration_status :varchar</text>
<text text-anchor="start" x="8" y="-1044.3" font-family="Times,serif" font-size="14.00">migration_destination :varchar</text>
<text text-anchor="start" x="8" y="-1029.3" font-family="Times,serif" font-size="14.00">created_at :datetime</text>
<text text-anchor="start" x="8" y="-1014.3" font-family="Times,serif" font-size="14.00">updated_at :datetime</text>
<text text-anchor="start" x="8" y="-999.3" font-family="Times,serif" font-size="14.00">identity_id :integer</text>
</g>
<!-- Identity -->
<g id="node7" class="node"><title>Identity</title>
<path fill="none" stroke="black" d="M427.5,-0.5C427.5,-0.5 580.5,-0.5 580.5,-0.5 586.5,-0.5 592.5,-6.5 592.5,-12.5 592.5,-12.5 592.5,-679.5 592.5,-679.5 592.5,-685.5 586.5,-691.5 580.5,-691.5 580.5,-691.5 427.5,-691.5 427.5,-691.5 421.5,-691.5 415.5,-685.5 415.5,-679.5 415.5,-679.5 415.5,-12.5 415.5,-12.5 415.5,-6.5 421.5,-0.5 427.5,-0.5"/>
<text text-anchor="middle" x="504" y="-676.3" font-family="Times,serif" font-size="14.00">Identity</text>
<polyline fill="none" stroke="black" points="415.5,-668.5 592.5,-668.5 "/>
<text text-anchor="start" x="423.5" y="-653.3" font-family="Times,serif" font-size="14.00">id :integer</text>
<text text-anchor="start" x="423.5" y="-638.3" font-family="Times,serif" font-size="14.00">first_name :varchar</text>
<text text-anchor="start" x="423.5" y="-623.3" font-family="Times,serif" font-size="14.00">created_at :datetime</text>
<text text-anchor="start" x="423.5" y="-608.3" font-family="Times,serif" font-size="14.00">updated_at :datetime</text>
<text text-anchor="start" x="423.5" y="-593.3" font-family="Times,serif" font-size="14.00">second_name :varchar</text>
<text text-anchor="start" x="423.5" y="-578.3" font-family="Times,serif" font-size="14.00">first_last_name :varchar</text>
<text text-anchor="start" x="423.5" y="-563.3" font-family="Times,serif" font-size="14.00">first_second_name :varchar</text>
<text text-anchor="start" x="423.5" y="-548.3" font-family="Times,serif" font-size="14.00">birth_date :date</text>
<text text-anchor="start" x="423.5" y="-533.3" font-family="Times,serif" font-size="14.00">birth_country :varchar</text>
<text text-anchor="start" x="423.5" y="-518.3" font-family="Times,serif" font-size="14.00">birth_state :varchar</text>
<text text-anchor="start" x="423.5" y="-503.3" font-family="Times,serif" font-size="14.00">nationatily :varchar</text>
<text text-anchor="start" x="423.5" y="-488.3" font-family="Times,serif" font-size="14.00">alias :varchar</text>
<text text-anchor="start" x="423.5" y="-473.3" font-family="Times,serif" font-size="14.00">sex :varchar</text>
<text text-anchor="start" x="423.5" y="-458.3" font-family="Times,serif" font-size="14.00">gender :varchar</text>
<text text-anchor="start" x="423.5" y="-443.3" font-family="Times,serif" font-size="14.00">sexual_orientation :varchar</text>
<text text-anchor="start" x="423.5" y="-428.3" font-family="Times,serif" font-size="14.00">sexchange_surgery :boolean</text>
<text text-anchor="start" x="423.5" y="-413.3" font-family="Times,serif" font-size="14.00">amputation :boolean</text>
<text text-anchor="start" x="423.5" y="-398.3" font-family="Times,serif" font-size="14.00">chronic_disease :boolean</text>
<text text-anchor="start" x="423.5" y="-383.3" font-family="Times,serif" font-size="14.00">prosthesis :boolean</text>
<text text-anchor="start" x="423.5" y="-368.3" font-family="Times,serif" font-size="14.00">glasses :boolean</text>
<text text-anchor="start" x="423.5" y="-353.3" font-family="Times,serif" font-size="14.00">contact_lens :boolean</text>
<text text-anchor="start" x="423.5" y="-338.3" font-family="Times,serif" font-size="14.00">diopters :boolean</text>
<text text-anchor="start" x="423.5" y="-323.3" font-family="Times,serif" font-size="14.00">weight :float</text>
<text text-anchor="start" x="423.5" y="-308.3" font-family="Times,serif" font-size="14.00">height :float</text>
<text text-anchor="start" x="423.5" y="-293.3" font-family="Times,serif" font-size="14.00">skin_type :varchar</text>
<text text-anchor="start" x="423.5" y="-278.3" font-family="Times,serif" font-size="14.00">eye_color :varchar</text>
<text text-anchor="start" x="423.5" y="-263.3" font-family="Times,serif" font-size="14.00">hair_type :varchar</text>
<text text-anchor="start" x="423.5" y="-248.3" font-family="Times,serif" font-size="14.00">hair_color :varchar</text>
<text text-anchor="start" x="423.5" y="-233.3" font-family="Times,serif" font-size="14.00">facial_hair :varchar</text>
<text text-anchor="start" x="423.5" y="-218.3" font-family="Times,serif" font-size="14.00">body_hair :boolean</text>
<text text-anchor="start" x="423.5" y="-203.3" font-family="Times,serif" font-size="14.00">tattoos :boolean</text>
<text text-anchor="start" x="423.5" y="-188.3" font-family="Times,serif" font-size="14.00">piercings :boolean</text>
<text text-anchor="start" x="423.5" y="-173.3" font-family="Times,serif" font-size="14.00">facial_moles :boolean</text>
<text text-anchor="start" x="423.5" y="-158.3" font-family="Times,serif" font-size="14.00">facial_birth_marks :boolean</text>
<text text-anchor="start" x="423.5" y="-143.3" font-family="Times,serif" font-size="14.00">facial_scars :boolean</text>
<text text-anchor="start" x="423.5" y="-128.3" font-family="Times,serif" font-size="14.00">hands_moles :boolean</text>
<text text-anchor="start" x="423.5" y="-113.3" font-family="Times,serif" font-size="14.00">hands_birth_marks :boolean</text>
<text text-anchor="start" x="423.5" y="-98.3" font-family="Times,serif" font-size="14.00">hands_scars :boolean</text>
<text text-anchor="start" x="423.5" y="-83.3" font-family="Times,serif" font-size="14.00">physical_disabilities :boolean</text>
<text text-anchor="start" x="423.5" y="-68.3" font-family="Times,serif" font-size="14.00">mental_disabilities :boolean</text>
<text text-anchor="start" x="423.5" y="-53.3" font-family="Times,serif" font-size="14.00">mental_illness :boolean</text>
<text text-anchor="start" x="423.5" y="-38.3" font-family="Times,serif" font-size="14.00">sight_disabilities :boolean</text>
<text text-anchor="start" x="423.5" y="-23.3" font-family="Times,serif" font-size="14.00">ear_disabilities :boolean</text>
<text text-anchor="start" x="423.5" y="-8.3" font-family="Times,serif" font-size="14.00">ethnicity :boolean</text>
</g>
<!-- Migration&#45;&gt;Identity -->
<g id="edge1" class="edge"><title>Migration&#45;&gt;Identity</title>
<path fill="none" stroke="#166048" d="M105.227,-983.412C120.214,-915.931 148.509,-810.649 193,-728 250.867,-620.502 341.108,-514.234 409.51,-441.354"/>
<ellipse fill="none" stroke="#166048" cx="104.322" cy="-987.543" rx="4.00001" ry="4.00001"/>
<ellipse fill="#166048" stroke="#166048" cx="412.483" cy="-438.199" rx="4.00002" ry="4.00002"/>
</g>
<!-- ApplicationRecord -->
<g id="node2" class="node"><title>ApplicationRecord</title>
<ellipse fill="none" stroke="black" cx="1101" cy="-1052" rx="77.0154" ry="18"/>
<text text-anchor="middle" x="1101" y="-1048.3" font-family="Times,serif" font-size="14.00">ApplicationRecord</text>
</g>
<!-- MetaDatum -->
<g id="node3" class="node"><title>MetaDatum</title>
<path fill="none" stroke="black" d="M1208.5,-961.5C1208.5,-961.5 1401.5,-961.5 1401.5,-961.5 1407.5,-961.5 1413.5,-967.5 1413.5,-973.5 1413.5,-973.5 1413.5,-1130.5 1413.5,-1130.5 1413.5,-1136.5 1407.5,-1142.5 1401.5,-1142.5 1401.5,-1142.5 1208.5,-1142.5 1208.5,-1142.5 1202.5,-1142.5 1196.5,-1136.5 1196.5,-1130.5 1196.5,-1130.5 1196.5,-973.5 1196.5,-973.5 1196.5,-967.5 1202.5,-961.5 1208.5,-961.5"/>
<text text-anchor="middle" x="1305" y="-1127.3" font-family="Times,serif" font-size="14.00">MetaDatum</text>
<polyline fill="none" stroke="black" points="1196.5,-1119.5 1413.5,-1119.5 "/>
<text text-anchor="start" x="1204.5" y="-1104.3" font-family="Times,serif" font-size="14.00">id :INTEGER</text>
<text text-anchor="start" x="1204.5" y="-1089.3" font-family="Times,serif" font-size="14.00">dataset_name :varchar</text>
<text text-anchor="start" x="1204.5" y="-1074.3" font-family="Times,serif" font-size="14.00">dataset_owner :varchar</text>
<text text-anchor="start" x="1204.5" y="-1059.3" font-family="Times,serif" font-size="14.00">dataset_owner_contact :varchar</text>
<text text-anchor="start" x="1204.5" y="-1044.3" font-family="Times,serif" font-size="14.00">dataset_url :varchar</text>
<text text-anchor="start" x="1204.5" y="-1029.3" font-family="Times,serif" font-size="14.00">dataset_date_imported :datetime</text>
<text text-anchor="start" x="1204.5" y="-1014.3" font-family="Times,serif" font-size="14.00">dataset_update_continously :boolean</text>
<text text-anchor="start" x="1204.5" y="-999.3" font-family="Times,serif" font-size="14.00">dataset_last_update :datetime</text>
<text text-anchor="start" x="1204.5" y="-984.3" font-family="Times,serif" font-size="14.00">created_at :datetime</text>
<text text-anchor="start" x="1204.5" y="-969.3" font-family="Times,serif" font-size="14.00">updated_at :datetime</text>
</g>
<!-- Report -->
<g id="node4" class="node"><title>Report</title>
<path fill="none" stroke="black" d="M1444,-924C1444,-924 1654,-924 1654,-924 1660,-924 1666,-930 1666,-936 1666,-936 1666,-1168 1666,-1168 1666,-1174 1660,-1180 1654,-1180 1654,-1180 1444,-1180 1444,-1180 1438,-1180 1432,-1174 1432,-1168 1432,-1168 1432,-936 1432,-936 1432,-930 1438,-924 1444,-924"/>
<text text-anchor="middle" x="1549" y="-1164.8" font-family="Times,serif" font-size="14.00">Report</text>
<polyline fill="none" stroke="black" points="1432,-1157 1666,-1157 "/>
<text text-anchor="start" x="1440" y="-1141.8" font-family="Times,serif" font-size="14.00">id :INTEGER</text>
<text text-anchor="start" x="1440" y="-1126.8" font-family="Times,serif" font-size="14.00">report_date :date</text>
<text text-anchor="start" x="1440" y="-1111.8" font-family="Times,serif" font-size="14.00">report_institution :boolean</text>
<text text-anchor="start" x="1440" y="-1096.8" font-family="Times,serif" font-size="14.00">report_media_url :varchar</text>
<text text-anchor="start" x="1440" y="-1081.8" font-family="Times,serif" font-size="14.00">report_media_reach :varchar</text>
<text text-anchor="start" x="1440" y="-1066.8" font-family="Times,serif" font-size="14.00">report_institution_name :varchar</text>
<text text-anchor="start" x="1440" y="-1051.8" font-family="Times,serif" font-size="14.00">report_institution_street :varchar</text>
<text text-anchor="start" x="1440" y="-1036.8" font-family="Times,serif" font-size="14.00">report_institution_number :varchar</text>
<text text-anchor="start" x="1440" y="-1021.8" font-family="Times,serif" font-size="14.00">report_institution_colony :varchar</text>
<text text-anchor="start" x="1440" y="-1006.8" font-family="Times,serif" font-size="14.00">report_institution_municipality :varchar</text>
<text text-anchor="start" x="1440" y="-991.8" font-family="Times,serif" font-size="14.00">report_institution_state :varchar</text>
<text text-anchor="start" x="1440" y="-976.8" font-family="Times,serif" font-size="14.00">report_institution_country :varchar</text>
<text text-anchor="start" x="1440" y="-961.8" font-family="Times,serif" font-size="14.00">report_institution_answer :varchar</text>
<text text-anchor="start" x="1440" y="-946.8" font-family="Times,serif" font-size="14.00">created_at :datetime</text>
<text text-anchor="start" x="1440" y="-931.8" font-family="Times,serif" font-size="14.00">updated_at :datetime</text>
</g>
<!-- Event -->
<g id="node5" class="node"><title>Event</title>
<path fill="none" stroke="black" d="M214,-811.5C214,-811.5 382,-811.5 382,-811.5 388,-811.5 394,-817.5 394,-823.5 394,-823.5 394,-1280.5 394,-1280.5 394,-1286.5 388,-1292.5 382,-1292.5 382,-1292.5 214,-1292.5 214,-1292.5 208,-1292.5 202,-1286.5 202,-1280.5 202,-1280.5 202,-823.5 202,-823.5 202,-817.5 208,-811.5 214,-811.5"/>
<text text-anchor="middle" x="298" y="-1277.3" font-family="Times,serif" font-size="14.00">Event</text>
<polyline fill="none" stroke="black" points="202,-1269.5 394,-1269.5 "/>
<text text-anchor="start" x="210" y="-1254.3" font-family="Times,serif" font-size="14.00">id :INTEGER</text>
<text text-anchor="start" x="210" y="-1239.3" font-family="Times,serif" font-size="14.00">event_date :date</text>
<text text-anchor="start" x="210" y="-1224.3" font-family="Times,serif" font-size="14.00">event_time :time</text>
<text text-anchor="start" x="210" y="-1209.3" font-family="Times,serif" font-size="14.00">event_street :varchar</text>
<text text-anchor="start" x="210" y="-1194.3" font-family="Times,serif" font-size="14.00">event_street_number :varchar</text>
<text text-anchor="start" x="210" y="-1179.3" font-family="Times,serif" font-size="14.00">event_colony :varchar</text>
<text text-anchor="start" x="210" y="-1164.3" font-family="Times,serif" font-size="14.00">event_municipality :varchar</text>
<text text-anchor="start" x="210" y="-1149.3" font-family="Times,serif" font-size="14.00">event_city :varchar</text>
<text text-anchor="start" x="210" y="-1134.3" font-family="Times,serif" font-size="14.00">event_postal :integer</text>
<text text-anchor="start" x="210" y="-1119.3" font-family="Times,serif" font-size="14.00">event_state :varchar</text>
<text text-anchor="start" x="210" y="-1104.3" font-family="Times,serif" font-size="14.00">event_country :varchar</text>
<text text-anchor="start" x="210" y="-1089.3" font-family="Times,serif" font-size="14.00">com_device :boolean</text>
<text text-anchor="start" x="210" y="-1074.3" font-family="Times,serif" font-size="14.00">device_sn :varchar</text>
<text text-anchor="start" x="210" y="-1059.3" font-family="Times,serif" font-size="14.00">device_IMEI :varchar</text>
<text text-anchor="start" x="210" y="-1044.3" font-family="Times,serif" font-size="14.00">vehicule :boolean</text>
<text text-anchor="start" x="210" y="-1029.3" font-family="Times,serif" font-size="14.00">vehicule_plate :varchar</text>
<text text-anchor="start" x="210" y="-1014.3" font-family="Times,serif" font-size="14.00">vehicule_color :varchar</text>
<text text-anchor="start" x="210" y="-999.3" font-family="Times,serif" font-size="14.00">vehicule_year :integer</text>
<text text-anchor="start" x="210" y="-984.3" font-family="Times,serif" font-size="14.00">vehicule_found :boolean</text>
<text text-anchor="start" x="210" y="-969.3" font-family="Times,serif" font-size="14.00">possible_cause :varchar</text>
<text text-anchor="start" x="210" y="-954.3" font-family="Times,serif" font-size="14.00">context :varchar</text>
<text text-anchor="start" x="210" y="-939.3" font-family="Times,serif" font-size="14.00">act :varchar</text>
<text text-anchor="start" x="210" y="-924.3" font-family="Times,serif" font-size="14.00">abductor :varchar</text>
<text text-anchor="start" x="210" y="-909.3" font-family="Times,serif" font-size="14.00">violence :boolean</text>
<text text-anchor="start" x="210" y="-894.3" font-family="Times,serif" font-size="14.00">abduct_atribution :boolean</text>
<text text-anchor="start" x="210" y="-879.3" font-family="Times,serif" font-size="14.00">physical_consecuences :boolean</text>
<text text-anchor="start" x="210" y="-864.3" font-family="Times,serif" font-size="14.00">place_type :varchar</text>
<text text-anchor="start" x="210" y="-849.3" font-family="Times,serif" font-size="14.00">created_at :datetime</text>
<text text-anchor="start" x="210" y="-834.3" font-family="Times,serif" font-size="14.00">updated_at :datetime</text>
<text text-anchor="start" x="210" y="-819.3" font-family="Times,serif" font-size="14.00">identity_id :integer</text>
</g>
<!-- Event&#45;&gt;Identity -->
<g id="edge2" class="edge"><title>Event&#45;&gt;Identity</title>
<path fill="none" stroke="#1058ce" d="M370.5,-803.234C384.304,-756.059 398.911,-706.139 413.201,-657.305"/>
<ellipse fill="none" stroke="#1058ce" cx="369.297" cy="-807.345" rx="4.00001" ry="4.00001"/>
<ellipse fill="#1058ce" stroke="#1058ce" cx="414.368" cy="-653.316" rx="4.00001" ry="4.00001"/>
</g>
<!-- Genetic -->
<g id="node6" class="node"><title>Genetic</title>
<path fill="none" stroke="black" d="M1696,-916.5C1696,-916.5 1842,-916.5 1842,-916.5 1848,-916.5 1854,-922.5 1854,-928.5 1854,-928.5 1854,-1175.5 1854,-1175.5 1854,-1181.5 1848,-1187.5 1842,-1187.5 1842,-1187.5 1696,-1187.5 1696,-1187.5 1690,-1187.5 1684,-1181.5 1684,-1175.5 1684,-1175.5 1684,-928.5 1684,-928.5 1684,-922.5 1690,-916.5 1696,-916.5"/>
<text text-anchor="middle" x="1769" y="-1172.3" font-family="Times,serif" font-size="14.00">Genetic</text>
<polyline fill="none" stroke="black" points="1684,-1164.5 1854,-1164.5 "/>
<text text-anchor="start" x="1692" y="-1149.3" font-family="Times,serif" font-size="14.00">id :integer</text>
<text text-anchor="start" x="1692" y="-1134.3" font-family="Times,serif" font-size="14.00">DNA_subject :boolean</text>
<text text-anchor="start" x="1692" y="-1119.3" font-family="Times,serif" font-size="14.00">DNA_s_b :varchar</text>
<text text-anchor="start" x="1692" y="-1104.3" font-family="Times,serif" font-size="14.00">DNA_s_b_date :date</text>
<text text-anchor="start" x="1692" y="-1089.3" font-family="Times,serif" font-size="14.00">DNA_s_b_ref :varchar</text>
<text text-anchor="start" x="1692" y="-1074.3" font-family="Times,serif" font-size="14.00">DNA_s_b_code :boolean</text>
<text text-anchor="start" x="1692" y="-1059.3" font-family="Times,serif" font-size="14.00">DNA_s_b_inst :boolean</text>
<text text-anchor="start" x="1692" y="-1044.3" font-family="Times,serif" font-size="14.00">DNA_s_s :boolean</text>
<text text-anchor="start" x="1692" y="-1029.3" font-family="Times,serif" font-size="14.00">DNA_s_s_date :boolean</text>
<text text-anchor="start" x="1692" y="-1014.3" font-family="Times,serif" font-size="14.00">DNA_s_s_ref :boolean</text>
<text text-anchor="start" x="1692" y="-999.3" font-family="Times,serif" font-size="14.00">DNA_s_s_code :boolean</text>
<text text-anchor="start" x="1692" y="-984.3" font-family="Times,serif" font-size="14.00">DNA_family :boolean</text>
<text text-anchor="start" x="1692" y="-969.3" font-family="Times,serif" font-size="14.00">DNA_f_b :boolean</text>
<text text-anchor="start" x="1692" y="-954.3" font-family="Times,serif" font-size="14.00">DNA_f_number_b :boolean</text>
<text text-anchor="start" x="1692" y="-939.3" font-family="Times,serif" font-size="14.00">created_at :datetime</text>
<text text-anchor="start" x="1692" y="-924.3" font-family="Times,serif" font-size="14.00">updated_at :datetime</text>
</g>
<!-- LastSeen -->
<g id="node8" class="node"><title>LastSeen</title>
<path fill="none" stroke="black" d="M424.5,-901.5C424.5,-901.5 583.5,-901.5 583.5,-901.5 589.5,-901.5 595.5,-907.5 595.5,-913.5 595.5,-913.5 595.5,-1190.5 595.5,-1190.5 595.5,-1196.5 589.5,-1202.5 583.5,-1202.5 583.5,-1202.5 424.5,-1202.5 424.5,-1202.5 418.5,-1202.5 412.5,-1196.5 412.5,-1190.5 412.5,-1190.5 412.5,-913.5 412.5,-913.5 412.5,-907.5 418.5,-901.5 424.5,-901.5"/>
<text text-anchor="middle" x="504" y="-1187.3" font-family="Times,serif" font-size="14.00">LastSeen</text>
<polyline fill="none" stroke="black" points="412.5,-1179.5 595.5,-1179.5 "/>
<text text-anchor="start" x="420.5" y="-1164.3" font-family="Times,serif" font-size="14.00">id :INTEGER</text>
<text text-anchor="start" x="420.5" y="-1149.3" font-family="Times,serif" font-size="14.00">ls_date :date</text>
<text text-anchor="start" x="420.5" y="-1134.3" font-family="Times,serif" font-size="14.00">ls_time :time</text>
<text text-anchor="start" x="420.5" y="-1119.3" font-family="Times,serif" font-size="14.00">ls_number :varchar</text>
<text text-anchor="start" x="420.5" y="-1104.3" font-family="Times,serif" font-size="14.00">ls_colony :varchar</text>
<text text-anchor="start" x="420.5" y="-1089.3" font-family="Times,serif" font-size="14.00">ls_municipality :varchar</text>
<text text-anchor="start" x="420.5" y="-1074.3" font-family="Times,serif" font-size="14.00">ls_city :varchar</text>
<text text-anchor="start" x="420.5" y="-1059.3" font-family="Times,serif" font-size="14.00">ls_postal :integer</text>
<text text-anchor="start" x="420.5" y="-1044.3" font-family="Times,serif" font-size="14.00">ls_state :varchar</text>
<text text-anchor="start" x="420.5" y="-1029.3" font-family="Times,serif" font-size="14.00">ls_country :varchar</text>
<text text-anchor="start" x="420.5" y="-1014.3" font-family="Times,serif" font-size="14.00">clothes :boolean</text>
<text text-anchor="start" x="420.5" y="-999.3" font-family="Times,serif" font-size="14.00">clothes_top :varchar</text>
<text text-anchor="start" x="420.5" y="-984.3" font-family="Times,serif" font-size="14.00">clothes_top_color :varchar</text>
<text text-anchor="start" x="420.5" y="-969.3" font-family="Times,serif" font-size="14.00">clothes_bottom :varchar</text>
<text text-anchor="start" x="420.5" y="-954.3" font-family="Times,serif" font-size="14.00">clothes_bottom_color :varchar</text>
<text text-anchor="start" x="420.5" y="-939.3" font-family="Times,serif" font-size="14.00">created_at :datetime</text>
<text text-anchor="start" x="420.5" y="-924.3" font-family="Times,serif" font-size="14.00">updated_at :datetime</text>
<text text-anchor="start" x="420.5" y="-909.3" font-family="Times,serif" font-size="14.00">identity_id :integer</text>
</g>
<!-- LastSeen&#45;&gt;Identity -->
<g id="edge3" class="edge"><title>LastSeen&#45;&gt;Identity</title>
<path fill="none" stroke="#b6ec0f" d="M504,-893.251C504,-835.569 504,-767.755 504,-699.896"/>
<ellipse fill="none" stroke="#b6ec0f" cx="504" cy="-897.269" rx="4" ry="4"/>
<ellipse fill="#b6ec0f" stroke="#b6ec0f" cx="504" cy="-695.621" rx="4" ry="4"/>
</g>
<!-- Biography -->
<g id="node9" class="node"><title>Biography</title>
<path fill="none" stroke="black" d="M626,-729C626,-729 802,-729 802,-729 808,-729 814,-735 814,-741 814,-741 814,-1363 814,-1363 814,-1369 808,-1375 802,-1375 802,-1375 626,-1375 626,-1375 620,-1375 614,-1369 614,-1363 614,-1363 614,-741 614,-741 614,-735 620,-729 626,-729"/>
<text text-anchor="middle" x="714" y="-1359.8" font-family="Times,serif" font-size="14.00">Biography</text>
<polyline fill="none" stroke="black" points="614,-1352 814,-1352 "/>
<text text-anchor="start" x="622" y="-1336.8" font-family="Times,serif" font-size="14.00">id :INTEGER</text>
<text text-anchor="start" x="622" y="-1321.8" font-family="Times,serif" font-size="14.00">biography_street :varchar</text>
<text text-anchor="start" x="622" y="-1306.8" font-family="Times,serif" font-size="14.00">biography_number :varchar</text>
<text text-anchor="start" x="622" y="-1291.8" font-family="Times,serif" font-size="14.00">biography_colony :varchar</text>
<text text-anchor="start" x="622" y="-1276.8" font-family="Times,serif" font-size="14.00">biography_municipality :varchar</text>
<text text-anchor="start" x="622" y="-1261.8" font-family="Times,serif" font-size="14.00">biography_city :varchar</text>
<text text-anchor="start" x="622" y="-1246.8" font-family="Times,serif" font-size="14.00">biography_postal :integer</text>
<text text-anchor="start" x="622" y="-1231.8" font-family="Times,serif" font-size="14.00">biography_state :varchar</text>
<text text-anchor="start" x="622" y="-1216.8" font-family="Times,serif" font-size="14.00">biography_country :varchar</text>
<text text-anchor="start" x="622" y="-1201.8" font-family="Times,serif" font-size="14.00">civil_status :varchar</text>
<text text-anchor="start" x="622" y="-1186.8" font-family="Times,serif" font-size="14.00">marriage_date :date</text>
<text text-anchor="start" x="622" y="-1171.8" font-family="Times,serif" font-size="14.00">language :varchar</text>
<text text-anchor="start" x="622" y="-1156.8" font-family="Times,serif" font-size="14.00">dialect :varchar</text>
<text text-anchor="start" x="622" y="-1141.8" font-family="Times,serif" font-size="14.00">children_biological :varchar</text>
<text text-anchor="start" x="622" y="-1126.8" font-family="Times,serif" font-size="14.00">children_adopted :varchar</text>
<text text-anchor="start" x="622" y="-1111.8" font-family="Times,serif" font-size="14.00">dependants :varchar</text>
<text text-anchor="start" x="622" y="-1096.8" font-family="Times,serif" font-size="14.00">education :varchar</text>
<text text-anchor="start" x="622" y="-1081.8" font-family="Times,serif" font-size="14.00">education_field :varchar</text>
<text text-anchor="start" x="622" y="-1066.8" font-family="Times,serif" font-size="14.00">religion :varchar</text>
<text text-anchor="start" x="622" y="-1051.8" font-family="Times,serif" font-size="14.00">activist :boolean</text>
<text text-anchor="start" x="622" y="-1036.8" font-family="Times,serif" font-size="14.00">journalist :boolean</text>
<text text-anchor="start" x="622" y="-1021.8" font-family="Times,serif" font-size="14.00">migrant :boolean</text>
<text text-anchor="start" x="622" y="-1006.8" font-family="Times,serif" font-size="14.00">criminal_affiliation :boolean</text>
<text text-anchor="start" x="622" y="-991.8" font-family="Times,serif" font-size="14.00">state_affiliation :boolean</text>
<text text-anchor="start" x="622" y="-976.8" font-family="Times,serif" font-size="14.00">range :varchar</text>
<text text-anchor="start" x="622" y="-961.8" font-family="Times,serif" font-size="14.00">occupation :varchar</text>
<text text-anchor="start" x="622" y="-946.8" font-family="Times,serif" font-size="14.00">position :varchar</text>
<text text-anchor="start" x="622" y="-931.8" font-family="Times,serif" font-size="14.00">occupation_street :varchar</text>
<text text-anchor="start" x="622" y="-916.8" font-family="Times,serif" font-size="14.00">occupation_number :varchar</text>
<text text-anchor="start" x="622" y="-901.8" font-family="Times,serif" font-size="14.00">occupation_colony :varchar</text>
<text text-anchor="start" x="622" y="-886.8" font-family="Times,serif" font-size="14.00">occupation_municipality :varchar</text>
<text text-anchor="start" x="622" y="-871.8" font-family="Times,serif" font-size="14.00">occupation_city :varchar</text>
<text text-anchor="start" x="622" y="-856.8" font-family="Times,serif" font-size="14.00">occupation_postal :varchar</text>
<text text-anchor="start" x="622" y="-841.8" font-family="Times,serif" font-size="14.00">occupation_state :varchar</text>
<text text-anchor="start" x="622" y="-826.8" font-family="Times,serif" font-size="14.00">occupation_country :varchar</text>
<text text-anchor="start" x="622" y="-811.8" font-family="Times,serif" font-size="14.00">drugs :boolean</text>
<text text-anchor="start" x="622" y="-796.8" font-family="Times,serif" font-size="14.00">alcohol :boolean</text>
<text text-anchor="start" x="622" y="-781.8" font-family="Times,serif" font-size="14.00">smoker :boolean</text>
<text text-anchor="start" x="622" y="-766.8" font-family="Times,serif" font-size="14.00">created_at :datetime</text>
<text text-anchor="start" x="622" y="-751.8" font-family="Times,serif" font-size="14.00">updated_at :datetime</text>
<text text-anchor="start" x="622" y="-736.8" font-family="Times,serif" font-size="14.00">identity_id :integer</text>
</g>
<!-- Biography&#45;&gt;Identity -->
<g id="edge4" class="edge"><title>Biography&#45;&gt;Identity</title>
<path fill="none" stroke="#83c926" d="M615.533,-720.9C608.642,-697.798 601.713,-674.571 594.866,-651.617"/>
<ellipse fill="none" stroke="#83c926" cx="616.768" cy="-725.041" rx="4.00001" ry="4.00001"/>
<ellipse fill="#83c926" stroke="#83c926" cx="593.69" cy="-647.676" rx="4.00001" ry="4.00001"/>
</g>
<!-- Perpetrator -->
<g id="node10" class="node"><title>Perpetrator</title>
<path fill="none" stroke="black" d="M844.5,-961.5C844.5,-961.5 993.5,-961.5 993.5,-961.5 999.5,-961.5 1005.5,-967.5 1005.5,-973.5 1005.5,-973.5 1005.5,-1130.5 1005.5,-1130.5 1005.5,-1136.5 999.5,-1142.5 993.5,-1142.5 993.5,-1142.5 844.5,-1142.5 844.5,-1142.5 838.5,-1142.5 832.5,-1136.5 832.5,-1130.5 832.5,-1130.5 832.5,-973.5 832.5,-973.5 832.5,-967.5 838.5,-961.5 844.5,-961.5"/>
<text text-anchor="middle" x="919" y="-1127.3" font-family="Times,serif" font-size="14.00">Perpetrator</text>
<polyline fill="none" stroke="black" points="832.5,-1119.5 1005.5,-1119.5 "/>
<text text-anchor="start" x="840.5" y="-1104.3" font-family="Times,serif" font-size="14.00">id :INTEGER</text>
<text text-anchor="start" x="840.5" y="-1089.3" font-family="Times,serif" font-size="14.00">attribution :boolean</text>
<text text-anchor="start" x="840.5" y="-1074.3" font-family="Times,serif" font-size="14.00">legal_attribution :boolean</text>
<text text-anchor="start" x="840.5" y="-1059.3" font-family="Times,serif" font-size="14.00">legal_figure :boolean</text>
<text text-anchor="start" x="840.5" y="-1044.3" font-family="Times,serif" font-size="14.00">legal_order :boolean</text>
<text text-anchor="start" x="840.5" y="-1029.3" font-family="Times,serif" font-size="14.00">criminal_attribution :varchar</text>
<text text-anchor="start" x="840.5" y="-1014.3" font-family="Times,serif" font-size="14.00">criminal_figure :varchar</text>
<text text-anchor="start" x="840.5" y="-999.3" font-family="Times,serif" font-size="14.00">created_at :datetime</text>
<text text-anchor="start" x="840.5" y="-984.3" font-family="Times,serif" font-size="14.00">updated_at :datetime</text>
<text text-anchor="start" x="840.5" y="-969.3" font-family="Times,serif" font-size="14.00">identity_id :integer</text>
</g>
<!-- Perpetrator&#45;&gt;Identity -->
<g id="edge5" class="edge"><title>Perpetrator&#45;&gt;Identity</title>
<path fill="none" stroke="#239078" d="M900.854,-953.219C885.993,-886.98 861.11,-798.94 823,-728 763.831,-617.86 669.419,-510.319 598.631,-437.732"/>
<ellipse fill="none" stroke="#239078" cx="901.753" cy="-957.28" rx="4.00001" ry="4.00001"/>
<ellipse fill="#239078" stroke="#239078" cx="595.517" cy="-434.552" rx="4.00002" ry="4.00002"/>
</g>
</g>
</svg>
