<?xml version="1.0" encoding="UTF-8" standalone="no"?>
<!DOCTYPE svg PUBLIC "-//W3C//DTD SVG 1.1//EN"
 "http://www.w3.org/Graphics/SVG/1.1/DTD/svg11.dtd">
<!-- Generated by graphviz version 2.36.0 (20140111.2315)
 -->
<!-- Title: models_diagram Pages: 1 -->
<svg width="2080pt" height="1414pt"
 viewBox="0.00 0.00 2080.00 1414.00" xmlns="http://www.w3.org/2000/svg" xmlns:xlink="http://www.w3.org/1999/xlink">
<g id="graph0" class="graph" transform="scale(1 1) rotate(0) translate(4 1410)">
<title>models_diagram</title>
<polygon fill="none" stroke="none" points="-4,4 -4,-1410 2076,-1410 2076,4 -4,4"/>
<!-- Migration -->
<g id="node1" class="node"><title>Migration</title>
<path fill="none" stroke="black" d="M12,-1021.5C12,-1021.5 172,-1021.5 172,-1021.5 178,-1021.5 184,-1027.5 184,-1033.5 184,-1033.5 184,-1130.5 184,-1130.5 184,-1136.5 178,-1142.5 172,-1142.5 172,-1142.5 12,-1142.5 12,-1142.5 6,-1142.5 0,-1136.5 0,-1130.5 0,-1130.5 0,-1033.5 0,-1033.5 0,-1027.5 6,-1021.5 12,-1021.5"/>
<text text-anchor="middle" x="92" y="-1127.3" font-family="Times,serif" font-size="14.00">Migration</text>
<polyline fill="none" stroke="black" points="0,-1119.5 184,-1119.5 "/>
<text text-anchor="start" x="8" y="-1104.3" font-family="Times,serif" font-size="14.00">id :INTEGER</text>
<text text-anchor="start" x="8" y="-1089.3" font-family="Times,serif" font-size="14.00">migration_status :varchar</text>
<text text-anchor="start" x="8" y="-1074.3" font-family="Times,serif" font-size="14.00">migration_destination :varchar</text>
<text text-anchor="start" x="8" y="-1059.3" font-family="Times,serif" font-size="14.00">created_at :datetime</text>
<text text-anchor="start" x="8" y="-1044.3" font-family="Times,serif" font-size="14.00">updated_at :datetime</text>
<text text-anchor="start" x="8" y="-1029.3" font-family="Times,serif" font-size="14.00">identity_id :integer</text>
</g>
<!-- Identity -->
<g id="node7" class="node"><title>Identity</title>
<path fill="none" stroke="black" d="M427.5,-0.5C427.5,-0.5 580.5,-0.5 580.5,-0.5 586.5,-0.5 592.5,-6.5 592.5,-12.5 592.5,-12.5 592.5,-709.5 592.5,-709.5 592.5,-715.5 586.5,-721.5 580.5,-721.5 580.5,-721.5 427.5,-721.5 427.5,-721.5 421.5,-721.5 415.5,-715.5 415.5,-709.5 415.5,-709.5 415.5,-12.5 415.5,-12.5 415.5,-6.5 421.5,-0.5 427.5,-0.5"/>
<text text-anchor="middle" x="504" y="-706.3" font-family="Times,serif" font-size="14.00">Identity</text>
<polyline fill="none" stroke="black" points="415.5,-698.5 592.5,-698.5 "/>
<text text-anchor="start" x="423.5" y="-683.3" font-family="Times,serif" font-size="14.00">id :integer</text>
<text text-anchor="start" x="423.5" y="-668.3" font-family="Times,serif" font-size="14.00">first_name :varchar</text>
<text text-anchor="start" x="423.5" y="-653.3" font-family="Times,serif" font-size="14.00">created_at :datetime</text>
<text text-anchor="start" x="423.5" y="-638.3" font-family="Times,serif" font-size="14.00">updated_at :datetime</text>
<text text-anchor="start" x="423.5" y="-623.3" font-family="Times,serif" font-size="14.00">second_name :varchar</text>
<text text-anchor="start" x="423.5" y="-608.3" font-family="Times,serif" font-size="14.00">first_last_name :varchar</text>
<text text-anchor="start" x="423.5" y="-593.3" font-family="Times,serif" font-size="14.00">first_second_name :varchar</text>
<text text-anchor="start" x="423.5" y="-578.3" font-family="Times,serif" font-size="14.00">birth_date :date</text>
<text text-anchor="start" x="423.5" y="-563.3" font-family="Times,serif" font-size="14.00">birth_country :varchar</text>
<text text-anchor="start" x="423.5" y="-548.3" font-family="Times,serif" font-size="14.00">birth_state :varchar</text>
<text text-anchor="start" x="423.5" y="-533.3" font-family="Times,serif" font-size="14.00">nationatily :varchar</text>
<text text-anchor="start" x="423.5" y="-518.3" font-family="Times,serif" font-size="14.00">alias :varchar</text>
<text text-anchor="start" x="423.5" y="-503.3" font-family="Times,serif" font-size="14.00">sex :varchar</text>
<text text-anchor="start" x="423.5" y="-488.3" font-family="Times,serif" font-size="14.00">gender :varchar</text>
<text text-anchor="start" x="423.5" y="-473.3" font-family="Times,serif" font-size="14.00">sexual_orientation :varchar</text>
<text text-anchor="start" x="423.5" y="-458.3" font-family="Times,serif" font-size="14.00">sexchange_surgery :boolean</text>
<text text-anchor="start" x="423.5" y="-443.3" font-family="Times,serif" font-size="14.00">amputation :boolean</text>
<text text-anchor="start" x="423.5" y="-428.3" font-family="Times,serif" font-size="14.00">chronic_disease :boolean</text>
<text text-anchor="start" x="423.5" y="-413.3" font-family="Times,serif" font-size="14.00">prosthesis :boolean</text>
<text text-anchor="start" x="423.5" y="-398.3" font-family="Times,serif" font-size="14.00">glasses :boolean</text>
<text text-anchor="start" x="423.5" y="-383.3" font-family="Times,serif" font-size="14.00">contact_lens :boolean</text>
<text text-anchor="start" x="423.5" y="-368.3" font-family="Times,serif" font-size="14.00">diopters :boolean</text>
<text text-anchor="start" x="423.5" y="-353.3" font-family="Times,serif" font-size="14.00">weight :varchar</text>
<text text-anchor="start" x="423.5" y="-338.3" font-family="Times,serif" font-size="14.00">height :float</text>
<text text-anchor="start" x="423.5" y="-323.3" font-family="Times,serif" font-size="14.00">skin_type :varchar</text>
<text text-anchor="start" x="423.5" y="-308.3" font-family="Times,serif" font-size="14.00">eye_color :varchar</text>
<text text-anchor="start" x="423.5" y="-293.3" font-family="Times,serif" font-size="14.00">hair_type :varchar</text>
<text text-anchor="start" x="423.5" y="-278.3" font-family="Times,serif" font-size="14.00">hair_color :varchar</text>
<text text-anchor="start" x="423.5" y="-263.3" font-family="Times,serif" font-size="14.00">facial_hair :varchar</text>
<text text-anchor="start" x="423.5" y="-248.3" font-family="Times,serif" font-size="14.00">body_hair :boolean</text>
<text text-anchor="start" x="423.5" y="-233.3" font-family="Times,serif" font-size="14.00">tattoos :boolean</text>
<text text-anchor="start" x="423.5" y="-218.3" font-family="Times,serif" font-size="14.00">piercings :boolean</text>
<text text-anchor="start" x="423.5" y="-203.3" font-family="Times,serif" font-size="14.00">facial_moles :boolean</text>
<text text-anchor="start" x="423.5" y="-188.3" font-family="Times,serif" font-size="14.00">facial_birth_marks :boolean</text>
<text text-anchor="start" x="423.5" y="-173.3" font-family="Times,serif" font-size="14.00">facial_scars :boolean</text>
<text text-anchor="start" x="423.5" y="-158.3" font-family="Times,serif" font-size="14.00">hands_moles :boolean</text>
<text text-anchor="start" x="423.5" y="-143.3" font-family="Times,serif" font-size="14.00">hands_birth_marks :boolean</text>
<text text-anchor="start" x="423.5" y="-128.3" font-family="Times,serif" font-size="14.00">hands_scars :boolean</text>
<text text-anchor="start" x="423.5" y="-113.3" font-family="Times,serif" font-size="14.00">physical_disabilities :boolean</text>
<text text-anchor="start" x="423.5" y="-98.3" font-family="Times,serif" font-size="14.00">mental_disabilities :boolean</text>
<text text-anchor="start" x="423.5" y="-83.3" font-family="Times,serif" font-size="14.00">mental_illness :boolean</text>
<text text-anchor="start" x="423.5" y="-68.3" font-family="Times,serif" font-size="14.00">sight_disabilities :boolean</text>
<text text-anchor="start" x="423.5" y="-53.3" font-family="Times,serif" font-size="14.00">ear_disabilities :boolean</text>
<text text-anchor="start" x="423.5" y="-38.3" font-family="Times,serif" font-size="14.00">ethnicity :boolean</text>
<text text-anchor="start" x="423.5" y="-23.3" font-family="Times,serif" font-size="14.00">eye_type :varchar</text>
<text text-anchor="start" x="423.5" y="-8.3" font-family="Times,serif" font-size="14.00">unixtime :varchar</text>
</g>
<!-- Migration&#45;&gt;Identity -->
<g id="edge1" class="edge"><title>Migration&#45;&gt;Identity</title>
<path fill="none" stroke="#4cd4fa" d="M105.627,-1013.28C120.887,-945.927 149.356,-840.939 193,-758 251.205,-647.39 341.407,-536.806 409.708,-460.723"/>
<ellipse fill="none" stroke="#4cd4fa" cx="104.705" cy="-1017.4" rx="4.00001" ry="4.00001"/>
<ellipse fill="#4cd4fa" stroke="#4cd4fa" cx="412.737" cy="-457.361" rx="4.00002" ry="4.00002"/>
</g>
<!-- ApplicationRecord -->
<g id="node2" class="node"><title>ApplicationRecord</title>
<ellipse fill="none" stroke="black" cx="1101" cy="-1082" rx="77.0154" ry="18"/>
<text text-anchor="middle" x="1101" y="-1078.3" font-family="Times,serif" font-size="14.00">ApplicationRecord</text>
</g>
<!-- MetaDatum -->
<g id="node3" class="node"><title>MetaDatum</title>
<path fill="none" stroke="black" d="M1208.5,-991.5C1208.5,-991.5 1401.5,-991.5 1401.5,-991.5 1407.5,-991.5 1413.5,-997.5 1413.5,-1003.5 1413.5,-1003.5 1413.5,-1160.5 1413.5,-1160.5 1413.5,-1166.5 1407.5,-1172.5 1401.5,-1172.5 1401.5,-1172.5 1208.5,-1172.5 1208.5,-1172.5 1202.5,-1172.5 1196.5,-1166.5 1196.5,-1160.5 1196.5,-1160.5 1196.5,-1003.5 1196.5,-1003.5 1196.5,-997.5 1202.5,-991.5 1208.5,-991.5"/>
<text text-anchor="middle" x="1305" y="-1157.3" font-family="Times,serif" font-size="14.00">MetaDatum</text>
<polyline fill="none" stroke="black" points="1196.5,-1149.5 1413.5,-1149.5 "/>
<text text-anchor="start" x="1204.5" y="-1134.3" font-family="Times,serif" font-size="14.00">id :INTEGER</text>
<text text-anchor="start" x="1204.5" y="-1119.3" font-family="Times,serif" font-size="14.00">dataset_name :varchar</text>
<text text-anchor="start" x="1204.5" y="-1104.3" font-family="Times,serif" font-size="14.00">dataset_owner :varchar</text>
<text text-anchor="start" x="1204.5" y="-1089.3" font-family="Times,serif" font-size="14.00">dataset_owner_contact :varchar</text>
<text text-anchor="start" x="1204.5" y="-1074.3" font-family="Times,serif" font-size="14.00">dataset_url :varchar</text>
<text text-anchor="start" x="1204.5" y="-1059.3" font-family="Times,serif" font-size="14.00">dataset_date_imported :datetime</text>
<text text-anchor="start" x="1204.5" y="-1044.3" font-family="Times,serif" font-size="14.00">dataset_update_continously :boolean</text>
<text text-anchor="start" x="1204.5" y="-1029.3" font-family="Times,serif" font-size="14.00">dataset_last_update :datetime</text>
<text text-anchor="start" x="1204.5" y="-1014.3" font-family="Times,serif" font-size="14.00">created_at :datetime</text>
<text text-anchor="start" x="1204.5" y="-999.3" font-family="Times,serif" font-size="14.00">updated_at :datetime</text>
</g>
<!-- Report -->
<g id="node4" class="node"><title>Report</title>
<path fill="none" stroke="black" d="M1444,-954C1444,-954 1654,-954 1654,-954 1660,-954 1666,-960 1666,-966 1666,-966 1666,-1198 1666,-1198 1666,-1204 1660,-1210 1654,-1210 1654,-1210 1444,-1210 1444,-1210 1438,-1210 1432,-1204 1432,-1198 1432,-1198 1432,-966 1432,-966 1432,-960 1438,-954 1444,-954"/>
<text text-anchor="middle" x="1549" y="-1194.8" font-family="Times,serif" font-size="14.00">Report</text>
<polyline fill="none" stroke="black" points="1432,-1187 1666,-1187 "/>
<text text-anchor="start" x="1440" y="-1171.8" font-family="Times,serif" font-size="14.00">id :INTEGER</text>
<text text-anchor="start" x="1440" y="-1156.8" font-family="Times,serif" font-size="14.00">report_date :date</text>
<text text-anchor="start" x="1440" y="-1141.8" font-family="Times,serif" font-size="14.00">report_institution :boolean</text>
<text text-anchor="start" x="1440" y="-1126.8" font-family="Times,serif" font-size="14.00">report_media_url :varchar</text>
<text text-anchor="start" x="1440" y="-1111.8" font-family="Times,serif" font-size="14.00">report_media_reach :varchar</text>
<text text-anchor="start" x="1440" y="-1096.8" font-family="Times,serif" font-size="14.00">report_institution_name :varchar</text>
<text text-anchor="start" x="1440" y="-1081.8" font-family="Times,serif" font-size="14.00">report_institution_street :varchar</text>
<text text-anchor="start" x="1440" y="-1066.8" font-family="Times,serif" font-size="14.00">report_institution_number :varchar</text>
<text text-anchor="start" x="1440" y="-1051.8" font-family="Times,serif" font-size="14.00">report_institution_colony :varchar</text>
<text text-anchor="start" x="1440" y="-1036.8" font-family="Times,serif" font-size="14.00">report_institution_municipality :varchar</text>
<text text-anchor="start" x="1440" y="-1021.8" font-family="Times,serif" font-size="14.00">report_institution_state :varchar</text>
<text text-anchor="start" x="1440" y="-1006.8" font-family="Times,serif" font-size="14.00">report_institution_country :varchar</text>
<text text-anchor="start" x="1440" y="-991.8" font-family="Times,serif" font-size="14.00">report_institution_answer :varchar</text>
<text text-anchor="start" x="1440" y="-976.8" font-family="Times,serif" font-size="14.00">created_at :datetime</text>
<text text-anchor="start" x="1440" y="-961.8" font-family="Times,serif" font-size="14.00">updated_at :datetime</text>
</g>
<!-- Event -->
<g id="node5" class="node"><title>Event</title>
<path fill="none" stroke="black" d="M214,-841.5C214,-841.5 382,-841.5 382,-841.5 388,-841.5 394,-847.5 394,-853.5 394,-853.5 394,-1310.5 394,-1310.5 394,-1316.5 388,-1322.5 382,-1322.5 382,-1322.5 214,-1322.5 214,-1322.5 208,-1322.5 202,-1316.5 202,-1310.5 202,-1310.5 202,-853.5 202,-853.5 202,-847.5 208,-841.5 214,-841.5"/>
<text text-anchor="middle" x="298" y="-1307.3" font-family="Times,serif" font-size="14.00">Event</text>
<polyline fill="none" stroke="black" points="202,-1299.5 394,-1299.5 "/>
<text text-anchor="start" x="210" y="-1284.3" font-family="Times,serif" font-size="14.00">id :INTEGER</text>
<text text-anchor="start" x="210" y="-1269.3" font-family="Times,serif" font-size="14.00">event_date :date</text>
<text text-anchor="start" x="210" y="-1254.3" font-family="Times,serif" font-size="14.00">event_time :time</text>
<text text-anchor="start" x="210" y="-1239.3" font-family="Times,serif" font-size="14.00">event_street :varchar</text>
<text text-anchor="start" x="210" y="-1224.3" font-family="Times,serif" font-size="14.00">event_street_number :varchar</text>
<text text-anchor="start" x="210" y="-1209.3" font-family="Times,serif" font-size="14.00">event_colony :varchar</text>
<text text-anchor="start" x="210" y="-1194.3" font-family="Times,serif" font-size="14.00">event_municipality :varchar</text>
<text text-anchor="start" x="210" y="-1179.3" font-family="Times,serif" font-size="14.00">event_city :varchar</text>
<text text-anchor="start" x="210" y="-1164.3" font-family="Times,serif" font-size="14.00">event_postal :integer</text>
<text text-anchor="start" x="210" y="-1149.3" font-family="Times,serif" font-size="14.00">event_state :varchar</text>
<text text-anchor="start" x="210" y="-1134.3" font-family="Times,serif" font-size="14.00">event_country :varchar</text>
<text text-anchor="start" x="210" y="-1119.3" font-family="Times,serif" font-size="14.00">com_device :boolean</text>
<text text-anchor="start" x="210" y="-1104.3" font-family="Times,serif" font-size="14.00">device_sn :varchar</text>
<text text-anchor="start" x="210" y="-1089.3" font-family="Times,serif" font-size="14.00">device_IMEI :varchar</text>
<text text-anchor="start" x="210" y="-1074.3" font-family="Times,serif" font-size="14.00">vehicule :boolean</text>
<text text-anchor="start" x="210" y="-1059.3" font-family="Times,serif" font-size="14.00">vehicule_plate :varchar</text>
<text text-anchor="start" x="210" y="-1044.3" font-family="Times,serif" font-size="14.00">vehicule_color :varchar</text>
<text text-anchor="start" x="210" y="-1029.3" font-family="Times,serif" font-size="14.00">vehicule_year :integer</text>
<text text-anchor="start" x="210" y="-1014.3" font-family="Times,serif" font-size="14.00">vehicule_found :boolean</text>
<text text-anchor="start" x="210" y="-999.3" font-family="Times,serif" font-size="14.00">possible_cause :varchar</text>
<text text-anchor="start" x="210" y="-984.3" font-family="Times,serif" font-size="14.00">context :varchar</text>
<text text-anchor="start" x="210" y="-969.3" font-family="Times,serif" font-size="14.00">act :varchar</text>
<text text-anchor="start" x="210" y="-954.3" font-family="Times,serif" font-size="14.00">abductor :varchar</text>
<text text-anchor="start" x="210" y="-939.3" font-family="Times,serif" font-size="14.00">violence :boolean</text>
<text text-anchor="start" x="210" y="-924.3" font-family="Times,serif" font-size="14.00">abduct_atribution :boolean</text>
<text text-anchor="start" x="210" y="-909.3" font-family="Times,serif" font-size="14.00">physical_consecuences :boolean</text>
<text text-anchor="start" x="210" y="-894.3" font-family="Times,serif" font-size="14.00">place_type :varchar</text>
<text text-anchor="start" x="210" y="-879.3" font-family="Times,serif" font-size="14.00">created_at :datetime</text>
<text text-anchor="start" x="210" y="-864.3" font-family="Times,serif" font-size="14.00">updated_at :datetime</text>
<text text-anchor="start" x="210" y="-849.3" font-family="Times,serif" font-size="14.00">identity_id :integer</text>
</g>
<!-- Event&#45;&gt;Identity -->
<g id="edge2" class="edge"><title>Event&#45;&gt;Identity</title>
<path fill="none" stroke="#c51b9c" d="M368.942,-833.39C383.201,-783.625 398.369,-730.682 413.196,-678.932"/>
<ellipse fill="none" stroke="#c51b9c" cx="367.84" cy="-837.238" rx="4.00001" ry="4.00001"/>
<ellipse fill="#c51b9c" stroke="#c51b9c" cx="414.375" cy="-674.818" rx="4.00001" ry="4.00001"/>
</g>
<!-- Genetic -->
<g id="node6" class="node"><title>Genetic</title>
<path fill="none" stroke="black" d="M1696,-946.5C1696,-946.5 1842,-946.5 1842,-946.5 1848,-946.5 1854,-952.5 1854,-958.5 1854,-958.5 1854,-1205.5 1854,-1205.5 1854,-1211.5 1848,-1217.5 1842,-1217.5 1842,-1217.5 1696,-1217.5 1696,-1217.5 1690,-1217.5 1684,-1211.5 1684,-1205.5 1684,-1205.5 1684,-958.5 1684,-958.5 1684,-952.5 1690,-946.5 1696,-946.5"/>
<text text-anchor="middle" x="1769" y="-1202.3" font-family="Times,serif" font-size="14.00">Genetic</text>
<polyline fill="none" stroke="black" points="1684,-1194.5 1854,-1194.5 "/>
<text text-anchor="start" x="1692" y="-1179.3" font-family="Times,serif" font-size="14.00">id :integer</text>
<text text-anchor="start" x="1692" y="-1164.3" font-family="Times,serif" font-size="14.00">DNA_subject :boolean</text>
<text text-anchor="start" x="1692" y="-1149.3" font-family="Times,serif" font-size="14.00">DNA_s_b :varchar</text>
<text text-anchor="start" x="1692" y="-1134.3" font-family="Times,serif" font-size="14.00">DNA_s_b_date :date</text>
<text text-anchor="start" x="1692" y="-1119.3" font-family="Times,serif" font-size="14.00">DNA_s_b_ref :varchar</text>
<text text-anchor="start" x="1692" y="-1104.3" font-family="Times,serif" font-size="14.00">DNA_s_b_code :boolean</text>
<text text-anchor="start" x="1692" y="-1089.3" font-family="Times,serif" font-size="14.00">DNA_s_b_inst :boolean</text>
<text text-anchor="start" x="1692" y="-1074.3" font-family="Times,serif" font-size="14.00">DNA_s_s :boolean</text>
<text text-anchor="start" x="1692" y="-1059.3" font-family="Times,serif" font-size="14.00">DNA_s_s_date :boolean</text>
<text text-anchor="start" x="1692" y="-1044.3" font-family="Times,serif" font-size="14.00">DNA_s_s_ref :boolean</text>
<text text-anchor="start" x="1692" y="-1029.3" font-family="Times,serif" font-size="14.00">DNA_s_s_code :boolean</text>
<text text-anchor="start" x="1692" y="-1014.3" font-family="Times,serif" font-size="14.00">DNA_family :boolean</text>
<text text-anchor="start" x="1692" y="-999.3" font-family="Times,serif" font-size="14.00">DNA_f_b :boolean</text>
<text text-anchor="start" x="1692" y="-984.3" font-family="Times,serif" font-size="14.00">DNA_f_number_b :boolean</text>
<text text-anchor="start" x="1692" y="-969.3" font-family="Times,serif" font-size="14.00">created_at :datetime</text>
<text text-anchor="start" x="1692" y="-954.3" font-family="Times,serif" font-size="14.00">updated_at :datetime</text>
</g>
<!-- LastSeen -->
<g id="node8" class="node"><title>LastSeen</title>
<path fill="none" stroke="black" d="M424.5,-931.5C424.5,-931.5 583.5,-931.5 583.5,-931.5 589.5,-931.5 595.5,-937.5 595.5,-943.5 595.5,-943.5 595.5,-1220.5 595.5,-1220.5 595.5,-1226.5 589.5,-1232.5 583.5,-1232.5 583.5,-1232.5 424.5,-1232.5 424.5,-1232.5 418.5,-1232.5 412.5,-1226.5 412.5,-1220.5 412.5,-1220.5 412.5,-943.5 412.5,-943.5 412.5,-937.5 418.5,-931.5 424.5,-931.5"/>
<text text-anchor="middle" x="504" y="-1217.3" font-family="Times,serif" font-size="14.00">LastSeen</text>
<polyline fill="none" stroke="black" points="412.5,-1209.5 595.5,-1209.5 "/>
<text text-anchor="start" x="420.5" y="-1194.3" font-family="Times,serif" font-size="14.00">id :INTEGER</text>
<text text-anchor="start" x="420.5" y="-1179.3" font-family="Times,serif" font-size="14.00">ls_date :date</text>
<text text-anchor="start" x="420.5" y="-1164.3" font-family="Times,serif" font-size="14.00">ls_time :time</text>
<text text-anchor="start" x="420.5" y="-1149.3" font-family="Times,serif" font-size="14.00">ls_number :varchar</text>
<text text-anchor="start" x="420.5" y="-1134.3" font-family="Times,serif" font-size="14.00">ls_colony :varchar</text>
<text text-anchor="start" x="420.5" y="-1119.3" font-family="Times,serif" font-size="14.00">ls_municipality :varchar</text>
<text text-anchor="start" x="420.5" y="-1104.3" font-family="Times,serif" font-size="14.00">ls_city :varchar</text>
<text text-anchor="start" x="420.5" y="-1089.3" font-family="Times,serif" font-size="14.00">ls_postal :integer</text>
<text text-anchor="start" x="420.5" y="-1074.3" font-family="Times,serif" font-size="14.00">ls_state :varchar</text>
<text text-anchor="start" x="420.5" y="-1059.3" font-family="Times,serif" font-size="14.00">ls_country :varchar</text>
<text text-anchor="start" x="420.5" y="-1044.3" font-family="Times,serif" font-size="14.00">clothes :boolean</text>
<text text-anchor="start" x="420.5" y="-1029.3" font-family="Times,serif" font-size="14.00">clothes_top :varchar</text>
<text text-anchor="start" x="420.5" y="-1014.3" font-family="Times,serif" font-size="14.00">clothes_top_color :varchar</text>
<text text-anchor="start" x="420.5" y="-999.3" font-family="Times,serif" font-size="14.00">clothes_bottom :varchar</text>
<text text-anchor="start" x="420.5" y="-984.3" font-family="Times,serif" font-size="14.00">clothes_bottom_color :varchar</text>
<text text-anchor="start" x="420.5" y="-969.3" font-family="Times,serif" font-size="14.00">created_at :datetime</text>
<text text-anchor="start" x="420.5" y="-954.3" font-family="Times,serif" font-size="14.00">updated_at :datetime</text>
<text text-anchor="start" x="420.5" y="-939.3" font-family="Times,serif" font-size="14.00">identity_id :integer</text>
</g>
<!-- LastSeen&#45;&gt;Identity -->
<g id="edge3" class="edge"><title>LastSeen&#45;&gt;Identity</title>
<path fill="none" stroke="#0353a8" d="M504,-922.796C504,-865.41 504,-797.926 504,-730.036"/>
<ellipse fill="none" stroke="#0353a8" cx="504" cy="-927.149" rx="4" ry="4"/>
<ellipse fill="#0353a8" stroke="#0353a8" cx="504" cy="-725.756" rx="4" ry="4"/>
</g>
<!-- Biography -->
<g id="node9" class="node"><title>Biography</title>
<path fill="none" stroke="black" d="M626,-759C626,-759 802,-759 802,-759 808,-759 814,-765 814,-771 814,-771 814,-1393 814,-1393 814,-1399 808,-1405 802,-1405 802,-1405 626,-1405 626,-1405 620,-1405 614,-1399 614,-1393 614,-1393 614,-771 614,-771 614,-765 620,-759 626,-759"/>
<text text-anchor="middle" x="714" y="-1389.8" font-family="Times,serif" font-size="14.00">Biography</text>
<polyline fill="none" stroke="black" points="614,-1382 814,-1382 "/>
<text text-anchor="start" x="622" y="-1366.8" font-family="Times,serif" font-size="14.00">id :INTEGER</text>
<text text-anchor="start" x="622" y="-1351.8" font-family="Times,serif" font-size="14.00">biography_street :varchar</text>
<text text-anchor="start" x="622" y="-1336.8" font-family="Times,serif" font-size="14.00">biography_number :varchar</text>
<text text-anchor="start" x="622" y="-1321.8" font-family="Times,serif" font-size="14.00">biography_colony :varchar</text>
<text text-anchor="start" x="622" y="-1306.8" font-family="Times,serif" font-size="14.00">biography_municipality :varchar</text>
<text text-anchor="start" x="622" y="-1291.8" font-family="Times,serif" font-size="14.00">biography_city :varchar</text>
<text text-anchor="start" x="622" y="-1276.8" font-family="Times,serif" font-size="14.00">biography_postal :integer</text>
<text text-anchor="start" x="622" y="-1261.8" font-family="Times,serif" font-size="14.00">biography_state :varchar</text>
<text text-anchor="start" x="622" y="-1246.8" font-family="Times,serif" font-size="14.00">biography_country :varchar</text>
<text text-anchor="start" x="622" y="-1231.8" font-family="Times,serif" font-size="14.00">civil_status :varchar</text>
<text text-anchor="start" x="622" y="-1216.8" font-family="Times,serif" font-size="14.00">marriage_date :date</text>
<text text-anchor="start" x="622" y="-1201.8" font-family="Times,serif" font-size="14.00">language :varchar</text>
<text text-anchor="start" x="622" y="-1186.8" font-family="Times,serif" font-size="14.00">dialect :varchar</text>
<text text-anchor="start" x="622" y="-1171.8" font-family="Times,serif" font-size="14.00">children_biological :varchar</text>
<text text-anchor="start" x="622" y="-1156.8" font-family="Times,serif" font-size="14.00">children_adopted :varchar</text>
<text text-anchor="start" x="622" y="-1141.8" font-family="Times,serif" font-size="14.00">dependants :varchar</text>
<text text-anchor="start" x="622" y="-1126.8" font-family="Times,serif" font-size="14.00">education :varchar</text>
<text text-anchor="start" x="622" y="-1111.8" font-family="Times,serif" font-size="14.00">education_field :varchar</text>
<text text-anchor="start" x="622" y="-1096.8" font-family="Times,serif" font-size="14.00">religion :varchar</text>
<text text-anchor="start" x="622" y="-1081.8" font-family="Times,serif" font-size="14.00">activist :boolean</text>
<text text-anchor="start" x="622" y="-1066.8" font-family="Times,serif" font-size="14.00">journalist :boolean</text>
<text text-anchor="start" x="622" y="-1051.8" font-family="Times,serif" font-size="14.00">migrant :boolean</text>
<text text-anchor="start" x="622" y="-1036.8" font-family="Times,serif" font-size="14.00">criminal_affiliation :boolean</text>
<text text-anchor="start" x="622" y="-1021.8" font-family="Times,serif" font-size="14.00">state_affiliation :boolean</text>
<text text-anchor="start" x="622" y="-1006.8" font-family="Times,serif" font-size="14.00">range :varchar</text>
<text text-anchor="start" x="622" y="-991.8" font-family="Times,serif" font-size="14.00">occupation :varchar</text>
<text text-anchor="start" x="622" y="-976.8" font-family="Times,serif" font-size="14.00">position :varchar</text>
<text text-anchor="start" x="622" y="-961.8" font-family="Times,serif" font-size="14.00">occupation_street :varchar</text>
<text text-anchor="start" x="622" y="-946.8" font-family="Times,serif" font-size="14.00">occupation_number :varchar</text>
<text text-anchor="start" x="622" y="-931.8" font-family="Times,serif" font-size="14.00">occupation_colony :varchar</text>
<text text-anchor="start" x="622" y="-916.8" font-family="Times,serif" font-size="14.00">occupation_municipality :varchar</text>
<text text-anchor="start" x="622" y="-901.8" font-family="Times,serif" font-size="14.00">occupation_city :varchar</text>
<text text-anchor="start" x="622" y="-886.8" font-family="Times,serif" font-size="14.00">occupation_postal :varchar</text>
<text text-anchor="start" x="622" y="-871.8" font-family="Times,serif" font-size="14.00">occupation_state :varchar</text>
<text text-anchor="start" x="622" y="-856.8" font-family="Times,serif" font-size="14.00">occupation_country :varchar</text>
<text text-anchor="start" x="622" y="-841.8" font-family="Times,serif" font-size="14.00">drugs :boolean</text>
<text text-anchor="start" x="622" y="-826.8" font-family="Times,serif" font-size="14.00">alcohol :boolean</text>
<text text-anchor="start" x="622" y="-811.8" font-family="Times,serif" font-size="14.00">smoker :boolean</text>
<text text-anchor="start" x="622" y="-796.8" font-family="Times,serif" font-size="14.00">created_at :datetime</text>
<text text-anchor="start" x="622" y="-781.8" font-family="Times,serif" font-size="14.00">updated_at :datetime</text>
<text text-anchor="start" x="622" y="-766.8" font-family="Times,serif" font-size="14.00">identity_id :integer</text>
</g>
<!-- Biography&#45;&gt;Identity -->
<g id="edge4" class="edge"><title>Biography&#45;&gt;Identity</title>
<path fill="none" stroke="#e8231d" d="M617.659,-751.145C610.032,-725.034 602.344,-698.713 594.758,-672.738"/>
<ellipse fill="none" stroke="#e8231d" cx="618.781" cy="-754.99" rx="4.00001" ry="4.00001"/>
<ellipse fill="#e8231d" stroke="#e8231d" cx="593.636" cy="-668.896" rx="4.00001" ry="4.00001"/>
</g>
<!-- Perpetrator -->
<g id="node10" class="node"><title>Perpetrator</title>
<path fill="none" stroke="black" d="M844.5,-991.5C844.5,-991.5 993.5,-991.5 993.5,-991.5 999.5,-991.5 1005.5,-997.5 1005.5,-1003.5 1005.5,-1003.5 1005.5,-1160.5 1005.5,-1160.5 1005.5,-1166.5 999.5,-1172.5 993.5,-1172.5 993.5,-1172.5 844.5,-1172.5 844.5,-1172.5 838.5,-1172.5 832.5,-1166.5 832.5,-1160.5 832.5,-1160.5 832.5,-1003.5 832.5,-1003.5 832.5,-997.5 838.5,-991.5 844.5,-991.5"/>
<text text-anchor="middle" x="919" y="-1157.3" font-family="Times,serif" font-size="14.00">Perpetrator</text>
<polyline fill="none" stroke="black" points="832.5,-1149.5 1005.5,-1149.5 "/>
<text text-anchor="start" x="840.5" y="-1134.3" font-family="Times,serif" font-size="14.00">id :INTEGER</text>
<text text-anchor="start" x="840.5" y="-1119.3" font-family="Times,serif" font-size="14.00">attribution :boolean</text>
<text text-anchor="start" x="840.5" y="-1104.3" font-family="Times,serif" font-size="14.00">legal_attribution :boolean</text>
<text text-anchor="start" x="840.5" y="-1089.3" font-family="Times,serif" font-size="14.00">legal_figure :boolean</text>
<text text-anchor="start" x="840.5" y="-1074.3" font-family="Times,serif" font-size="14.00">legal_order :boolean</text>
<text text-anchor="start" x="840.5" y="-1059.3" font-family="Times,serif" font-size="14.00">criminal_attribution :varchar</text>
<text text-anchor="start" x="840.5" y="-1044.3" font-family="Times,serif" font-size="14.00">criminal_figure :varchar</text>
<text text-anchor="start" x="840.5" y="-1029.3" font-family="Times,serif" font-size="14.00">created_at :datetime</text>
<text text-anchor="start" x="840.5" y="-1014.3" font-family="Times,serif" font-size="14.00">updated_at :datetime</text>
<text text-anchor="start" x="840.5" y="-999.3" font-family="Times,serif" font-size="14.00">identity_id :integer</text>
</g>
<!-- Perpetrator&#45;&gt;Identity -->
<g id="edge5" class="edge"><title>Perpetrator&#45;&gt;Identity</title>
<path fill="none" stroke="#1a6653" d="M900.422,-983.448C885.37,-917.311 860.437,-829.298 823,-758 763.401,-644.495 668.771,-532.339 598.03,-456.525"/>
<ellipse fill="none" stroke="#1a6653" cx="901.332" cy="-987.5" rx="4.00001" ry="4.00001"/>
<ellipse fill="#1a6653" stroke="#1a6653" cx="595.285" cy="-453.593" rx="4.00002" ry="4.00002"/>
</g>
<!-- User -->
<g id="node11" class="node"><title>User</title>
<path fill="none" stroke="black" d="M1884,-946.5C1884,-946.5 2060,-946.5 2060,-946.5 2066,-946.5 2072,-952.5 2072,-958.5 2072,-958.5 2072,-1205.5 2072,-1205.5 2072,-1211.5 2066,-1217.5 2060,-1217.5 2060,-1217.5 1884,-1217.5 1884,-1217.5 1878,-1217.5 1872,-1211.5 1872,-1205.5 1872,-1205.5 1872,-958.5 1872,-958.5 1872,-952.5 1878,-946.5 1884,-946.5"/>
<text text-anchor="middle" x="1972" y="-1202.3" font-family="Times,serif" font-size="14.00">User</text>
<polyline fill="none" stroke="black" points="1872,-1194.5 2072,-1194.5 "/>
<text text-anchor="start" x="1880" y="-1179.3" font-family="Times,serif" font-size="14.00">id :INTEGER</text>
<text text-anchor="start" x="1880" y="-1164.3" font-family="Times,serif" font-size="14.00">email :varchar</text>
<text text-anchor="start" x="1880" y="-1149.3" font-family="Times,serif" font-size="14.00">encrypted_password :varchar</text>
<text text-anchor="start" x="1880" y="-1134.3" font-family="Times,serif" font-size="14.00">reset_password_token :varchar</text>
<text text-anchor="start" x="1880" y="-1119.3" font-family="Times,serif" font-size="14.00">reset_password_sent_at :datetime</text>
<text text-anchor="start" x="1880" y="-1104.3" font-family="Times,serif" font-size="14.00">remember_created_at :datetime</text>
<text text-anchor="start" x="1880" y="-1089.3" font-family="Times,serif" font-size="14.00">sign_in_count :integer</text>
<text text-anchor="start" x="1880" y="-1074.3" font-family="Times,serif" font-size="14.00">current_sign_in_at :datetime</text>
<text text-anchor="start" x="1880" y="-1059.3" font-family="Times,serif" font-size="14.00">last_sign_in_at :datetime</text>
<text text-anchor="start" x="1880" y="-1044.3" font-family="Times,serif" font-size="14.00">current_sign_in_ip :varchar</text>
<text text-anchor="start" x="1880" y="-1029.3" font-family="Times,serif" font-size="14.00">last_sign_in_ip :varchar</text>
<text text-anchor="start" x="1880" y="-1014.3" font-family="Times,serif" font-size="14.00">created_at :datetime</text>
<text text-anchor="start" x="1880" y="-999.3" font-family="Times,serif" font-size="14.00">updated_at :datetime</text>
<text text-anchor="start" x="1880" y="-984.3" font-family="Times,serif" font-size="14.00">superadmin_role :boolean</text>
<text text-anchor="start" x="1880" y="-969.3" font-family="Times,serif" font-size="14.00">editor_role :boolean</text>
<text text-anchor="start" x="1880" y="-954.3" font-family="Times,serif" font-size="14.00">user_role :boolean</text>
</g>
</g>
</svg>
