<?xml version="1.0" encoding="UTF-8" standalone="no"?>
<!DOCTYPE svg PUBLIC "-//W3C//DTD SVG 1.1//EN"
 "http://www.w3.org/Graphics/SVG/1.1/DTD/svg11.dtd">
<!-- Generated by graphviz version 2.36.0 (20140111.2315)
 -->
<!-- Title: controllers_diagram Pages: 1 -->
<svg width="324pt" height="208pt"
 viewBox="0.00 0.00 324.00 208.00" xmlns="http://www.w3.org/2000/svg" xmlns:xlink="http://www.w3.org/1999/xlink">
<g id="graph0" class="graph" transform="scale(1 1) rotate(0) translate(4 204)">
<title>controllers_diagram</title>
<polygon fill="none" stroke="none" points="-4,4 -4,-204 320,-204 320,4 -4,4"/>
<!-- _diagram_info -->
<g id="node1" class="node"><title>_diagram_info</title>
<text text-anchor="start" x="8" y="-63.6" font-family="Times,serif" font-size="13.00">Controllers diagram</text>
<text text-anchor="start" x="8" y="-49.6" font-family="Times,serif" font-size="13.00">Date: Apr 04 2018 &#45; 02:43</text>
<text text-anchor="start" x="8" y="-35.6" font-family="Times,serif" font-size="13.00">Migration version: 20180404023632</text>
<text text-anchor="start" x="8" y="-21.6" font-family="Times,serif" font-size="13.00">Generated by RailRoady 1.5.3</text>
<text text-anchor="start" x="8" y="-7.6" font-family="Times,serif" font-size="13.00">http://railroady.prestonlee.com</text>
</g>
<!-- ApplicationController -->
<g id="node2" class="node"><title>ApplicationController</title>
<path fill="none" stroke="black" d="M192,-105.5C192,-105.5 304,-105.5 304,-105.5 310,-105.5 316,-111.5 316,-117.5 316,-117.5 316,-187.5 316,-187.5 316,-193.5 310,-199.5 304,-199.5 304,-199.5 192,-199.5 192,-199.5 186,-199.5 180,-193.5 180,-187.5 180,-187.5 180,-117.5 180,-117.5 180,-111.5 186,-105.5 192,-105.5"/>
<text text-anchor="middle" x="248" y="-184.3" font-family="Times,serif" font-size="14.00">ApplicationController</text>
<polyline fill="none" stroke="black" points="180,-176.5 316,-176.5 "/>
<polyline fill="none" stroke="black" points="180,-152.5 316,-152.5 "/>
<polyline fill="none" stroke="black" points="180,-128.5 316,-128.5 "/>
<text text-anchor="start" x="188" y="-113.3" font-family="Times,serif" font-size="14.00">_layout</text>
</g>
</g>
</svg>
