<?xml version="1.0" encoding="UTF-8" standalone="no"?>
<!DOCTYPE svg PUBLIC "-//W3C//DTD SVG 1.1//EN"
 "http://www.w3.org/Graphics/SVG/1.1/DTD/svg11.dtd">
<!-- Generated by graphviz version 2.36.0 (20140111.2315)
 -->
<!-- Title: models_diagram Pages: 1 -->
<svg width="2093pt" height="1384pt"
 viewBox="0.00 0.00 2093.00 1384.00" xmlns="http://www.w3.org/2000/svg" xmlns:xlink="http://www.w3.org/1999/xlink">
<g id="graph0" class="graph" transform="scale(1 1) rotate(0) translate(4 1380)">
<title>models_diagram</title>
<polygon fill="none" stroke="none" points="-4,4 -4,-1380 2089,-1380 2089,4 -4,4"/>
<!-- _diagram_info -->
<g id="node1" class="node"><title>_diagram_info</title>
<text text-anchor="start" x="8" y="-1076.6" font-family="Times,serif" font-size="13.00">Models diagram</text>
<text text-anchor="start" x="8" y="-1062.6" font-family="Times,serif" font-size="13.00">Date: Apr 04 2018 &#45; 02:43</text>
<text text-anchor="start" x="8" y="-1048.6" font-family="Times,serif" font-size="13.00">Migration version: 20180404023632</text>
<text text-anchor="start" x="8" y="-1034.6" font-family="Times,serif" font-size="13.00">Generated by RailRoady 1.5.3</text>
<text text-anchor="start" x="8" y="-1020.6" font-family="Times,serif" font-size="13.00">http://railroady.prestonlee.com</text>
</g>
<!-- Migration -->
<g id="node2" class="node"><title>Migration</title>
<path fill="none" stroke="black" d="M244,-999C244,-999 404,-999 404,-999 410,-999 416,-1005 416,-1011 416,-1011 416,-1093 416,-1093 416,-1099 410,-1105 404,-1105 404,-1105 244,-1105 244,-1105 238,-1105 232,-1099 232,-1093 232,-1093 232,-1011 232,-1011 232,-1005 238,-999 244,-999"/>
<text text-anchor="middle" x="324" y="-1089.8" font-family="Times,serif" font-size="14.00">Migration</text>
<polyline fill="none" stroke="black" points="232,-1082 416,-1082 "/>
<text text-anchor="start" x="240" y="-1066.8" font-family="Times,serif" font-size="14.00">id :INTEGER</text>
<text text-anchor="start" x="240" y="-1051.8" font-family="Times,serif" font-size="14.00">migration_status :varchar</text>
<text text-anchor="start" x="240" y="-1036.8" font-family="Times,serif" font-size="14.00">migration_destination :varchar</text>
<text text-anchor="start" x="240" y="-1021.8" font-family="Times,serif" font-size="14.00">created_at :datetime</text>
<text text-anchor="start" x="240" y="-1006.8" font-family="Times,serif" font-size="14.00">updated_at :datetime</text>
</g>
<!-- ApplicationRecord -->
<g id="node3" class="node"><title>ApplicationRecord</title>
<ellipse fill="none" stroke="black" cx="511" cy="-1052" rx="77.0154" ry="18"/>
<text text-anchor="middle" x="511" y="-1048.3" font-family="Times,serif" font-size="14.00">ApplicationRecord</text>
</g>
<!-- MetaDatum -->
<g id="node4" class="node"><title>MetaDatum</title>
<path fill="none" stroke="black" d="M618.5,-961.5C618.5,-961.5 811.5,-961.5 811.5,-961.5 817.5,-961.5 823.5,-967.5 823.5,-973.5 823.5,-973.5 823.5,-1130.5 823.5,-1130.5 823.5,-1136.5 817.5,-1142.5 811.5,-1142.5 811.5,-1142.5 618.5,-1142.5 618.5,-1142.5 612.5,-1142.5 606.5,-1136.5 606.5,-1130.5 606.5,-1130.5 606.5,-973.5 606.5,-973.5 606.5,-967.5 612.5,-961.5 618.5,-961.5"/>
<text text-anchor="middle" x="715" y="-1127.3" font-family="Times,serif" font-size="14.00">MetaDatum</text>
<polyline fill="none" stroke="black" points="606.5,-1119.5 823.5,-1119.5 "/>
<text text-anchor="start" x="614.5" y="-1104.3" font-family="Times,serif" font-size="14.00">id :INTEGER</text>
<text text-anchor="start" x="614.5" y="-1089.3" font-family="Times,serif" font-size="14.00">dataset_name :varchar</text>
<text text-anchor="start" x="614.5" y="-1074.3" font-family="Times,serif" font-size="14.00">dataset_owner :varchar</text>
<text text-anchor="start" x="614.5" y="-1059.3" font-family="Times,serif" font-size="14.00">dataset_owner_contact :varchar</text>
<text text-anchor="start" x="614.5" y="-1044.3" font-family="Times,serif" font-size="14.00">dataset_url :varchar</text>
<text text-anchor="start" x="614.5" y="-1029.3" font-family="Times,serif" font-size="14.00">dataset_date_imported :datetime</text>
<text text-anchor="start" x="614.5" y="-1014.3" font-family="Times,serif" font-size="14.00">dataset_update_continously :boolean</text>
<text text-anchor="start" x="614.5" y="-999.3" font-family="Times,serif" font-size="14.00">dataset_last_update :datetime</text>
<text text-anchor="start" x="614.5" y="-984.3" font-family="Times,serif" font-size="14.00">created_at :datetime</text>
<text text-anchor="start" x="614.5" y="-969.3" font-family="Times,serif" font-size="14.00">updated_at :datetime</text>
</g>
<!-- Report -->
<g id="node5" class="node"><title>Report</title>
<path fill="none" stroke="black" d="M854,-924C854,-924 1064,-924 1064,-924 1070,-924 1076,-930 1076,-936 1076,-936 1076,-1168 1076,-1168 1076,-1174 1070,-1180 1064,-1180 1064,-1180 854,-1180 854,-1180 848,-1180 842,-1174 842,-1168 842,-1168 842,-936 842,-936 842,-930 848,-924 854,-924"/>
<text text-anchor="middle" x="959" y="-1164.8" font-family="Times,serif" font-size="14.00">Report</text>
<polyline fill="none" stroke="black" points="842,-1157 1076,-1157 "/>
<text text-anchor="start" x="850" y="-1141.8" font-family="Times,serif" font-size="14.00">id :INTEGER</text>
<text text-anchor="start" x="850" y="-1126.8" font-family="Times,serif" font-size="14.00">report_date :date</text>
<text text-anchor="start" x="850" y="-1111.8" font-family="Times,serif" font-size="14.00">report_institution :boolean</text>
<text text-anchor="start" x="850" y="-1096.8" font-family="Times,serif" font-size="14.00">report_media_url :varchar</text>
<text text-anchor="start" x="850" y="-1081.8" font-family="Times,serif" font-size="14.00">report_media_reach :varchar</text>
<text text-anchor="start" x="850" y="-1066.8" font-family="Times,serif" font-size="14.00">report_institution_name :varchar</text>
<text text-anchor="start" x="850" y="-1051.8" font-family="Times,serif" font-size="14.00">report_institution_street :varchar</text>
<text text-anchor="start" x="850" y="-1036.8" font-family="Times,serif" font-size="14.00">report_institution_number :varchar</text>
<text text-anchor="start" x="850" y="-1021.8" font-family="Times,serif" font-size="14.00">report_institution_colony :varchar</text>
<text text-anchor="start" x="850" y="-1006.8" font-family="Times,serif" font-size="14.00">report_institution_municipality :varchar</text>
<text text-anchor="start" x="850" y="-991.8" font-family="Times,serif" font-size="14.00">report_institution_state :varchar</text>
<text text-anchor="start" x="850" y="-976.8" font-family="Times,serif" font-size="14.00">report_institution_country :varchar</text>
<text text-anchor="start" x="850" y="-961.8" font-family="Times,serif" font-size="14.00">report_institution_answer :varchar</text>
<text text-anchor="start" x="850" y="-946.8" font-family="Times,serif" font-size="14.00">created_at :datetime</text>
<text text-anchor="start" x="850" y="-931.8" font-family="Times,serif" font-size="14.00">updated_at :datetime</text>
</g>
<!-- Event -->
<g id="node6" class="node"><title>Event</title>
<path fill="none" stroke="black" d="M1106,-819C1106,-819 1274,-819 1274,-819 1280,-819 1286,-825 1286,-831 1286,-831 1286,-1273 1286,-1273 1286,-1279 1280,-1285 1274,-1285 1274,-1285 1106,-1285 1106,-1285 1100,-1285 1094,-1279 1094,-1273 1094,-1273 1094,-831 1094,-831 1094,-825 1100,-819 1106,-819"/>
<text text-anchor="middle" x="1190" y="-1269.8" font-family="Times,serif" font-size="14.00">Event</text>
<polyline fill="none" stroke="black" points="1094,-1262 1286,-1262 "/>
<text text-anchor="start" x="1102" y="-1246.8" font-family="Times,serif" font-size="14.00">id :INTEGER</text>
<text text-anchor="start" x="1102" y="-1231.8" font-family="Times,serif" font-size="14.00">event_date :date</text>
<text text-anchor="start" x="1102" y="-1216.8" font-family="Times,serif" font-size="14.00">event_time :time</text>
<text text-anchor="start" x="1102" y="-1201.8" font-family="Times,serif" font-size="14.00">event_street :varchar</text>
<text text-anchor="start" x="1102" y="-1186.8" font-family="Times,serif" font-size="14.00">event_street_number :varchar</text>
<text text-anchor="start" x="1102" y="-1171.8" font-family="Times,serif" font-size="14.00">event_colony :varchar</text>
<text text-anchor="start" x="1102" y="-1156.8" font-family="Times,serif" font-size="14.00">event_municipality :varchar</text>
<text text-anchor="start" x="1102" y="-1141.8" font-family="Times,serif" font-size="14.00">event_city :varchar</text>
<text text-anchor="start" x="1102" y="-1126.8" font-family="Times,serif" font-size="14.00">event_postal :integer</text>
<text text-anchor="start" x="1102" y="-1111.8" font-family="Times,serif" font-size="14.00">event_state :varchar</text>
<text text-anchor="start" x="1102" y="-1096.8" font-family="Times,serif" font-size="14.00">event_country :varchar</text>
<text text-anchor="start" x="1102" y="-1081.8" font-family="Times,serif" font-size="14.00">com_device :boolean</text>
<text text-anchor="start" x="1102" y="-1066.8" font-family="Times,serif" font-size="14.00">device_sn :varchar</text>
<text text-anchor="start" x="1102" y="-1051.8" font-family="Times,serif" font-size="14.00">device_IMEI :varchar</text>
<text text-anchor="start" x="1102" y="-1036.8" font-family="Times,serif" font-size="14.00">vehicule :boolean</text>
<text text-anchor="start" x="1102" y="-1021.8" font-family="Times,serif" font-size="14.00">vehicule_plate :varchar</text>
<text text-anchor="start" x="1102" y="-1006.8" font-family="Times,serif" font-size="14.00">vehicule_color :varchar</text>
<text text-anchor="start" x="1102" y="-991.8" font-family="Times,serif" font-size="14.00">vehicule_year :integer</text>
<text text-anchor="start" x="1102" y="-976.8" font-family="Times,serif" font-size="14.00">vehicule_found :boolean</text>
<text text-anchor="start" x="1102" y="-961.8" font-family="Times,serif" font-size="14.00">possible_cause :varchar</text>
<text text-anchor="start" x="1102" y="-946.8" font-family="Times,serif" font-size="14.00">context :varchar</text>
<text text-anchor="start" x="1102" y="-931.8" font-family="Times,serif" font-size="14.00">act :varchar</text>
<text text-anchor="start" x="1102" y="-916.8" font-family="Times,serif" font-size="14.00">abductor :varchar</text>
<text text-anchor="start" x="1102" y="-901.8" font-family="Times,serif" font-size="14.00">violence :boolean</text>
<text text-anchor="start" x="1102" y="-886.8" font-family="Times,serif" font-size="14.00">abduct_atribution :boolean</text>
<text text-anchor="start" x="1102" y="-871.8" font-family="Times,serif" font-size="14.00">physical_consecuences :boolean</text>
<text text-anchor="start" x="1102" y="-856.8" font-family="Times,serif" font-size="14.00">place_type :varchar</text>
<text text-anchor="start" x="1102" y="-841.8" font-family="Times,serif" font-size="14.00">created_at :datetime</text>
<text text-anchor="start" x="1102" y="-826.8" font-family="Times,serif" font-size="14.00">updated_at :datetime</text>
</g>
<!-- Genetic -->
<g id="node7" class="node"><title>Genetic</title>
<path fill="none" stroke="black" d="M1316,-916.5C1316,-916.5 1462,-916.5 1462,-916.5 1468,-916.5 1474,-922.5 1474,-928.5 1474,-928.5 1474,-1175.5 1474,-1175.5 1474,-1181.5 1468,-1187.5 1462,-1187.5 1462,-1187.5 1316,-1187.5 1316,-1187.5 1310,-1187.5 1304,-1181.5 1304,-1175.5 1304,-1175.5 1304,-928.5 1304,-928.5 1304,-922.5 1310,-916.5 1316,-916.5"/>
<text text-anchor="middle" x="1389" y="-1172.3" font-family="Times,serif" font-size="14.00">Genetic</text>
<polyline fill="none" stroke="black" points="1304,-1164.5 1474,-1164.5 "/>
<text text-anchor="start" x="1312" y="-1149.3" font-family="Times,serif" font-size="14.00">id :integer</text>
<text text-anchor="start" x="1312" y="-1134.3" font-family="Times,serif" font-size="14.00">DNA_subject :boolean</text>
<text text-anchor="start" x="1312" y="-1119.3" font-family="Times,serif" font-size="14.00">DNA_s_b :varchar</text>
<text text-anchor="start" x="1312" y="-1104.3" font-family="Times,serif" font-size="14.00">DNA_s_b_date :date</text>
<text text-anchor="start" x="1312" y="-1089.3" font-family="Times,serif" font-size="14.00">DNA_s_b_ref :varchar</text>
<text text-anchor="start" x="1312" y="-1074.3" font-family="Times,serif" font-size="14.00">DNA_s_b_code :boolean</text>
<text text-anchor="start" x="1312" y="-1059.3" font-family="Times,serif" font-size="14.00">DNA_s_b_inst :boolean</text>
<text text-anchor="start" x="1312" y="-1044.3" font-family="Times,serif" font-size="14.00">DNA_s_s :boolean</text>
<text text-anchor="start" x="1312" y="-1029.3" font-family="Times,serif" font-size="14.00">DNA_s_s_date :boolean</text>
<text text-anchor="start" x="1312" y="-1014.3" font-family="Times,serif" font-size="14.00">DNA_s_s_ref :boolean</text>
<text text-anchor="start" x="1312" y="-999.3" font-family="Times,serif" font-size="14.00">DNA_s_s_code :boolean</text>
<text text-anchor="start" x="1312" y="-984.3" font-family="Times,serif" font-size="14.00">DNA_family :boolean</text>
<text text-anchor="start" x="1312" y="-969.3" font-family="Times,serif" font-size="14.00">DNA_f_b :boolean</text>
<text text-anchor="start" x="1312" y="-954.3" font-family="Times,serif" font-size="14.00">DNA_f_number_b :boolean</text>
<text text-anchor="start" x="1312" y="-939.3" font-family="Times,serif" font-size="14.00">created_at :datetime</text>
<text text-anchor="start" x="1312" y="-924.3" font-family="Times,serif" font-size="14.00">updated_at :datetime</text>
</g>
<!-- Identity -->
<g id="node8" class="node"><title>Identity</title>
<path fill="none" stroke="black" d="M1612.5,-0.5C1612.5,-0.5 1765.5,-0.5 1765.5,-0.5 1771.5,-0.5 1777.5,-6.5 1777.5,-12.5 1777.5,-12.5 1777.5,-679.5 1777.5,-679.5 1777.5,-685.5 1771.5,-691.5 1765.5,-691.5 1765.5,-691.5 1612.5,-691.5 1612.5,-691.5 1606.5,-691.5 1600.5,-685.5 1600.5,-679.5 1600.5,-679.5 1600.5,-12.5 1600.5,-12.5 1600.5,-6.5 1606.5,-0.5 1612.5,-0.5"/>
<text text-anchor="middle" x="1689" y="-676.3" font-family="Times,serif" font-size="14.00">Identity</text>
<polyline fill="none" stroke="black" points="1600.5,-668.5 1777.5,-668.5 "/>
<text text-anchor="start" x="1608.5" y="-653.3" font-family="Times,serif" font-size="14.00">id :integer</text>
<text text-anchor="start" x="1608.5" y="-638.3" font-family="Times,serif" font-size="14.00">first_name :varchar</text>
<text text-anchor="start" x="1608.5" y="-623.3" font-family="Times,serif" font-size="14.00">created_at :datetime</text>
<text text-anchor="start" x="1608.5" y="-608.3" font-family="Times,serif" font-size="14.00">updated_at :datetime</text>
<text text-anchor="start" x="1608.5" y="-593.3" font-family="Times,serif" font-size="14.00">second_name :varchar</text>
<text text-anchor="start" x="1608.5" y="-578.3" font-family="Times,serif" font-size="14.00">first_last_name :varchar</text>
<text text-anchor="start" x="1608.5" y="-563.3" font-family="Times,serif" font-size="14.00">first_second_name :varchar</text>
<text text-anchor="start" x="1608.5" y="-548.3" font-family="Times,serif" font-size="14.00">birth_date :date</text>
<text text-anchor="start" x="1608.5" y="-533.3" font-family="Times,serif" font-size="14.00">birth_country :varchar</text>
<text text-anchor="start" x="1608.5" y="-518.3" font-family="Times,serif" font-size="14.00">birth_state :varchar</text>
<text text-anchor="start" x="1608.5" y="-503.3" font-family="Times,serif" font-size="14.00">nationatily :varchar</text>
<text text-anchor="start" x="1608.5" y="-488.3" font-family="Times,serif" font-size="14.00">alias :varchar</text>
<text text-anchor="start" x="1608.5" y="-473.3" font-family="Times,serif" font-size="14.00">sex :varchar</text>
<text text-anchor="start" x="1608.5" y="-458.3" font-family="Times,serif" font-size="14.00">gender :varchar</text>
<text text-anchor="start" x="1608.5" y="-443.3" font-family="Times,serif" font-size="14.00">sexual_orientation :varchar</text>
<text text-anchor="start" x="1608.5" y="-428.3" font-family="Times,serif" font-size="14.00">sexchange_surgery :boolean</text>
<text text-anchor="start" x="1608.5" y="-413.3" font-family="Times,serif" font-size="14.00">amputation :boolean</text>
<text text-anchor="start" x="1608.5" y="-398.3" font-family="Times,serif" font-size="14.00">chronic_disease :boolean</text>
<text text-anchor="start" x="1608.5" y="-383.3" font-family="Times,serif" font-size="14.00">prosthesis :boolean</text>
<text text-anchor="start" x="1608.5" y="-368.3" font-family="Times,serif" font-size="14.00">glasses :boolean</text>
<text text-anchor="start" x="1608.5" y="-353.3" font-family="Times,serif" font-size="14.00">contact_lens :boolean</text>
<text text-anchor="start" x="1608.5" y="-338.3" font-family="Times,serif" font-size="14.00">diopters :boolean</text>
<text text-anchor="start" x="1608.5" y="-323.3" font-family="Times,serif" font-size="14.00">weight :float</text>
<text text-anchor="start" x="1608.5" y="-308.3" font-family="Times,serif" font-size="14.00">height :float</text>
<text text-anchor="start" x="1608.5" y="-293.3" font-family="Times,serif" font-size="14.00">skin_type :varchar</text>
<text text-anchor="start" x="1608.5" y="-278.3" font-family="Times,serif" font-size="14.00">eye_color :varchar</text>
<text text-anchor="start" x="1608.5" y="-263.3" font-family="Times,serif" font-size="14.00">hair_type :varchar</text>
<text text-anchor="start" x="1608.5" y="-248.3" font-family="Times,serif" font-size="14.00">hair_color :varchar</text>
<text text-anchor="start" x="1608.5" y="-233.3" font-family="Times,serif" font-size="14.00">facial_hair :varchar</text>
<text text-anchor="start" x="1608.5" y="-218.3" font-family="Times,serif" font-size="14.00">body_hair :boolean</text>
<text text-anchor="start" x="1608.5" y="-203.3" font-family="Times,serif" font-size="14.00">tattoos :boolean</text>
<text text-anchor="start" x="1608.5" y="-188.3" font-family="Times,serif" font-size="14.00">piercings :boolean</text>
<text text-anchor="start" x="1608.5" y="-173.3" font-family="Times,serif" font-size="14.00">facial_moles :boolean</text>
<text text-anchor="start" x="1608.5" y="-158.3" font-family="Times,serif" font-size="14.00">facial_birth_marks :boolean</text>
<text text-anchor="start" x="1608.5" y="-143.3" font-family="Times,serif" font-size="14.00">facial_scars :boolean</text>
<text text-anchor="start" x="1608.5" y="-128.3" font-family="Times,serif" font-size="14.00">hands_moles :boolean</text>
<text text-anchor="start" x="1608.5" y="-113.3" font-family="Times,serif" font-size="14.00">hands_birth_marks :boolean</text>
<text text-anchor="start" x="1608.5" y="-98.3" font-family="Times,serif" font-size="14.00">hands_scars :boolean</text>
<text text-anchor="start" x="1608.5" y="-83.3" font-family="Times,serif" font-size="14.00">physical_disabilities :boolean</text>
<text text-anchor="start" x="1608.5" y="-68.3" font-family="Times,serif" font-size="14.00">mental_disabilities :boolean</text>
<text text-anchor="start" x="1608.5" y="-53.3" font-family="Times,serif" font-size="14.00">mental_illness :boolean</text>
<text text-anchor="start" x="1608.5" y="-38.3" font-family="Times,serif" font-size="14.00">sight_disabilities :boolean</text>
<text text-anchor="start" x="1608.5" y="-23.3" font-family="Times,serif" font-size="14.00">ear_disabilities :boolean</text>
<text text-anchor="start" x="1608.5" y="-8.3" font-family="Times,serif" font-size="14.00">ethnicity :boolean</text>
</g>
<!-- LastSeen -->
<g id="node9" class="node"><title>LastSeen</title>
<path fill="none" stroke="black" d="M1504.5,-901.5C1504.5,-901.5 1663.5,-901.5 1663.5,-901.5 1669.5,-901.5 1675.5,-907.5 1675.5,-913.5 1675.5,-913.5 1675.5,-1190.5 1675.5,-1190.5 1675.5,-1196.5 1669.5,-1202.5 1663.5,-1202.5 1663.5,-1202.5 1504.5,-1202.5 1504.5,-1202.5 1498.5,-1202.5 1492.5,-1196.5 1492.5,-1190.5 1492.5,-1190.5 1492.5,-913.5 1492.5,-913.5 1492.5,-907.5 1498.5,-901.5 1504.5,-901.5"/>
<text text-anchor="middle" x="1584" y="-1187.3" font-family="Times,serif" font-size="14.00">LastSeen</text>
<polyline fill="none" stroke="black" points="1492.5,-1179.5 1675.5,-1179.5 "/>
<text text-anchor="start" x="1500.5" y="-1164.3" font-family="Times,serif" font-size="14.00">id :INTEGER</text>
<text text-anchor="start" x="1500.5" y="-1149.3" font-family="Times,serif" font-size="14.00">ls_date :date</text>
<text text-anchor="start" x="1500.5" y="-1134.3" font-family="Times,serif" font-size="14.00">ls_time :time</text>
<text text-anchor="start" x="1500.5" y="-1119.3" font-family="Times,serif" font-size="14.00">ls_number :varchar</text>
<text text-anchor="start" x="1500.5" y="-1104.3" font-family="Times,serif" font-size="14.00">ls_colony :varchar</text>
<text text-anchor="start" x="1500.5" y="-1089.3" font-family="Times,serif" font-size="14.00">ls_municipality :varchar</text>
<text text-anchor="start" x="1500.5" y="-1074.3" font-family="Times,serif" font-size="14.00">ls_city :varchar</text>
<text text-anchor="start" x="1500.5" y="-1059.3" font-family="Times,serif" font-size="14.00">ls_postal :integer</text>
<text text-anchor="start" x="1500.5" y="-1044.3" font-family="Times,serif" font-size="14.00">ls_state :varchar</text>
<text text-anchor="start" x="1500.5" y="-1029.3" font-family="Times,serif" font-size="14.00">ls_country :varchar</text>
<text text-anchor="start" x="1500.5" y="-1014.3" font-family="Times,serif" font-size="14.00">clothes :boolean</text>
<text text-anchor="start" x="1500.5" y="-999.3" font-family="Times,serif" font-size="14.00">clothes_top :varchar</text>
<text text-anchor="start" x="1500.5" y="-984.3" font-family="Times,serif" font-size="14.00">clothes_top_color :varchar</text>
<text text-anchor="start" x="1500.5" y="-969.3" font-family="Times,serif" font-size="14.00">clothes_bottom :varchar</text>
<text text-anchor="start" x="1500.5" y="-954.3" font-family="Times,serif" font-size="14.00">clothes_bottom_color :varchar</text>
<text text-anchor="start" x="1500.5" y="-939.3" font-family="Times,serif" font-size="14.00">created_at :datetime</text>
<text text-anchor="start" x="1500.5" y="-924.3" font-family="Times,serif" font-size="14.00">updated_at :datetime</text>
<text text-anchor="start" x="1500.5" y="-909.3" font-family="Times,serif" font-size="14.00">identity_id :integer</text>
</g>
<!-- LastSeen&#45;&gt;Identity -->
<g id="edge1" class="edge"><title>LastSeen&#45;&gt;Identity</title>
<path fill="none" stroke="#0f2ed2" d="M1607.53,-893.251C1616.13,-835.569 1626.25,-767.755 1636.37,-699.896"/>
<ellipse fill="none" stroke="#0f2ed2" cx="1606.92" cy="-897.313" rx="4.00001" ry="4.00001"/>
<ellipse fill="#0f2ed2" stroke="#0f2ed2" cx="1637.01" cy="-695.578" rx="4.00001" ry="4.00001"/>
</g>
<!-- Biography -->
<g id="node10" class="node"><title>Biography</title>
<path fill="none" stroke="black" d="M1706,-729C1706,-729 1882,-729 1882,-729 1888,-729 1894,-735 1894,-741 1894,-741 1894,-1363 1894,-1363 1894,-1369 1888,-1375 1882,-1375 1882,-1375 1706,-1375 1706,-1375 1700,-1375 1694,-1369 1694,-1363 1694,-1363 1694,-741 1694,-741 1694,-735 1700,-729 1706,-729"/>
<text text-anchor="middle" x="1794" y="-1359.8" font-family="Times,serif" font-size="14.00">Biography</text>
<polyline fill="none" stroke="black" points="1694,-1352 1894,-1352 "/>
<text text-anchor="start" x="1702" y="-1336.8" font-family="Times,serif" font-size="14.00">id :INTEGER</text>
<text text-anchor="start" x="1702" y="-1321.8" font-family="Times,serif" font-size="14.00">biography_street :varchar</text>
<text text-anchor="start" x="1702" y="-1306.8" font-family="Times,serif" font-size="14.00">biography_number :varchar</text>
<text text-anchor="start" x="1702" y="-1291.8" font-family="Times,serif" font-size="14.00">biography_colony :varchar</text>
<text text-anchor="start" x="1702" y="-1276.8" font-family="Times,serif" font-size="14.00">biography_municipality :varchar</text>
<text text-anchor="start" x="1702" y="-1261.8" font-family="Times,serif" font-size="14.00">biography_city :varchar</text>
<text text-anchor="start" x="1702" y="-1246.8" font-family="Times,serif" font-size="14.00">biography_postal :integer</text>
<text text-anchor="start" x="1702" y="-1231.8" font-family="Times,serif" font-size="14.00">biography_state :varchar</text>
<text text-anchor="start" x="1702" y="-1216.8" font-family="Times,serif" font-size="14.00">biography_country :varchar</text>
<text text-anchor="start" x="1702" y="-1201.8" font-family="Times,serif" font-size="14.00">civil_status :varchar</text>
<text text-anchor="start" x="1702" y="-1186.8" font-family="Times,serif" font-size="14.00">marriage_date :date</text>
<text text-anchor="start" x="1702" y="-1171.8" font-family="Times,serif" font-size="14.00">language :varchar</text>
<text text-anchor="start" x="1702" y="-1156.8" font-family="Times,serif" font-size="14.00">dialect :varchar</text>
<text text-anchor="start" x="1702" y="-1141.8" font-family="Times,serif" font-size="14.00">children_biological :varchar</text>
<text text-anchor="start" x="1702" y="-1126.8" font-family="Times,serif" font-size="14.00">children_adopted :varchar</text>
<text text-anchor="start" x="1702" y="-1111.8" font-family="Times,serif" font-size="14.00">dependants :varchar</text>
<text text-anchor="start" x="1702" y="-1096.8" font-family="Times,serif" font-size="14.00">education :varchar</text>
<text text-anchor="start" x="1702" y="-1081.8" font-family="Times,serif" font-size="14.00">education_field :varchar</text>
<text text-anchor="start" x="1702" y="-1066.8" font-family="Times,serif" font-size="14.00">religion :varchar</text>
<text text-anchor="start" x="1702" y="-1051.8" font-family="Times,serif" font-size="14.00">activist :boolean</text>
<text text-anchor="start" x="1702" y="-1036.8" font-family="Times,serif" font-size="14.00">journalist :boolean</text>
<text text-anchor="start" x="1702" y="-1021.8" font-family="Times,serif" font-size="14.00">migrant :boolean</text>
<text text-anchor="start" x="1702" y="-1006.8" font-family="Times,serif" font-size="14.00">criminal_affiliation :boolean</text>
<text text-anchor="start" x="1702" y="-991.8" font-family="Times,serif" font-size="14.00">state_affiliation :boolean</text>
<text text-anchor="start" x="1702" y="-976.8" font-family="Times,serif" font-size="14.00">range :varchar</text>
<text text-anchor="start" x="1702" y="-961.8" font-family="Times,serif" font-size="14.00">occupation :varchar</text>
<text text-anchor="start" x="1702" y="-946.8" font-family="Times,serif" font-size="14.00">position :varchar</text>
<text text-anchor="start" x="1702" y="-931.8" font-family="Times,serif" font-size="14.00">occupation_street :varchar</text>
<text text-anchor="start" x="1702" y="-916.8" font-family="Times,serif" font-size="14.00">occupation_number :varchar</text>
<text text-anchor="start" x="1702" y="-901.8" font-family="Times,serif" font-size="14.00">occupation_colony :varchar</text>
<text text-anchor="start" x="1702" y="-886.8" font-family="Times,serif" font-size="14.00">occupation_municipality :varchar</text>
<text text-anchor="start" x="1702" y="-871.8" font-family="Times,serif" font-size="14.00">occupation_city :varchar</text>
<text text-anchor="start" x="1702" y="-856.8" font-family="Times,serif" font-size="14.00">occupation_postal :varchar</text>
<text text-anchor="start" x="1702" y="-841.8" font-family="Times,serif" font-size="14.00">occupation_state :varchar</text>
<text text-anchor="start" x="1702" y="-826.8" font-family="Times,serif" font-size="14.00">occupation_country :varchar</text>
<text text-anchor="start" x="1702" y="-811.8" font-family="Times,serif" font-size="14.00">drugs :boolean</text>
<text text-anchor="start" x="1702" y="-796.8" font-family="Times,serif" font-size="14.00">alcohol :boolean</text>
<text text-anchor="start" x="1702" y="-781.8" font-family="Times,serif" font-size="14.00">smoker :boolean</text>
<text text-anchor="start" x="1702" y="-766.8" font-family="Times,serif" font-size="14.00">created_at :datetime</text>
<text text-anchor="start" x="1702" y="-751.8" font-family="Times,serif" font-size="14.00">updated_at :datetime</text>
<text text-anchor="start" x="1702" y="-736.8" font-family="Times,serif" font-size="14.00">identity_id :integer</text>
</g>
<!-- Biography&#45;&gt;Identity -->
<g id="edge2" class="edge"><title>Biography&#45;&gt;Identity</title>
<path fill="none" stroke="#c3dce0" d="M1744.74,-720.73C1743.7,-713.756 1742.66,-706.771 1741.62,-699.786"/>
<ellipse fill="none" stroke="#c3dce0" cx="1745.37" cy="-724.918" rx="4.00001" ry="4.00001"/>
<ellipse fill="#c3dce0" stroke="#c3dce0" cx="1740.98" cy="-695.542" rx="4.00001" ry="4.00001"/>
</g>
<!-- Perpetrator -->
<g id="node11" class="node"><title>Perpetrator</title>
<path fill="none" stroke="black" d="M1924.5,-969C1924.5,-969 2073.5,-969 2073.5,-969 2079.5,-969 2085.5,-975 2085.5,-981 2085.5,-981 2085.5,-1123 2085.5,-1123 2085.5,-1129 2079.5,-1135 2073.5,-1135 2073.5,-1135 1924.5,-1135 1924.5,-1135 1918.5,-1135 1912.5,-1129 1912.5,-1123 1912.5,-1123 1912.5,-981 1912.5,-981 1912.5,-975 1918.5,-969 1924.5,-969"/>
<text text-anchor="middle" x="1999" y="-1119.8" font-family="Times,serif" font-size="14.00">Perpetrator</text>
<polyline fill="none" stroke="black" points="1912.5,-1112 2085.5,-1112 "/>
<text text-anchor="start" x="1920.5" y="-1096.8" font-family="Times,serif" font-size="14.00">id :INTEGER</text>
<text text-anchor="start" x="1920.5" y="-1081.8" font-family="Times,serif" font-size="14.00">attribution :boolean</text>
<text text-anchor="start" x="1920.5" y="-1066.8" font-family="Times,serif" font-size="14.00">legal_attribution :boolean</text>
<text text-anchor="start" x="1920.5" y="-1051.8" font-family="Times,serif" font-size="14.00">legal_figure :boolean</text>
<text text-anchor="start" x="1920.5" y="-1036.8" font-family="Times,serif" font-size="14.00">legal_order :boolean</text>
<text text-anchor="start" x="1920.5" y="-1021.8" font-family="Times,serif" font-size="14.00">criminal_attribution :varchar</text>
<text text-anchor="start" x="1920.5" y="-1006.8" font-family="Times,serif" font-size="14.00">criminal_figure :varchar</text>
<text text-anchor="start" x="1920.5" y="-991.8" font-family="Times,serif" font-size="14.00">created_at :datetime</text>
<text text-anchor="start" x="1920.5" y="-976.8" font-family="Times,serif" font-size="14.00">updated_at :datetime</text>
</g>
</g>
</svg>
