<?xml version="1.0" encoding="UTF-8" standalone="no"?>
<!DOCTYPE svg PUBLIC "-//W3C//DTD SVG 1.1//EN"
 "http://www.w3.org/Graphics/SVG/1.1/DTD/svg11.dtd">
<!-- Generated by graphviz version 2.36.0 (20140111.2315)
 -->
<!-- Title: models_diagram Pages: 1 -->
<svg width="1228pt" height="158pt"
 viewBox="0.00 0.00 1228.00 158.00" xmlns="http://www.w3.org/2000/svg" xmlns:xlink="http://www.w3.org/1999/xlink">
<g id="graph0" class="graph" transform="scale(1 1) rotate(0) translate(4 154)">
<title>models_diagram</title>
<polygon fill="none" stroke="none" points="-4,4 -4,-154 1224,-154 1224,4 -4,4"/>
<!-- _diagram_info -->
<g id="node1" class="node"><title>_diagram_info</title>
<text text-anchor="start" x="8" y="-135.6" font-family="Times,serif" font-size="13.00">Models diagram</text>
<text text-anchor="start" x="8" y="-121.6" font-family="Times,serif" font-size="13.00">Date: Apr 04 2018 &#45; 02:43</text>
<text text-anchor="start" x="8" y="-107.6" font-family="Times,serif" font-size="13.00">Migration version: 20180404023632</text>
<text text-anchor="start" x="8" y="-93.6" font-family="Times,serif" font-size="13.00">Generated by RailRoady 1.5.3</text>
<text text-anchor="start" x="8" y="-79.6" font-family="Times,serif" font-size="13.00">http://railroady.prestonlee.com</text>
</g>
<!-- Migration -->
<g id="node2" class="node"><title>Migration</title>
<ellipse fill="none" stroke="black" cx="278" cy="-111" rx="46.2191" ry="18"/>
<text text-anchor="middle" x="278" y="-107.3" font-family="Times,serif" font-size="14.00">Migration</text>
</g>
<!-- ApplicationRecord -->
<g id="node3" class="node"><title>ApplicationRecord</title>
<ellipse fill="none" stroke="black" cx="419" cy="-111" rx="77.0154" ry="18"/>
<text text-anchor="middle" x="419" y="-107.3" font-family="Times,serif" font-size="14.00">ApplicationRecord</text>
</g>
<!-- MetaDatum -->
<g id="node4" class="node"><title>MetaDatum</title>
<ellipse fill="none" stroke="black" cx="568" cy="-111" rx="53.4184" ry="18"/>
<text text-anchor="middle" x="568" y="-107.3" font-family="Times,serif" font-size="14.00">MetaDatum</text>
</g>
<!-- Report -->
<g id="node5" class="node"><title>Report</title>
<ellipse fill="none" stroke="black" cx="674" cy="-111" rx="34.1708" ry="18"/>
<text text-anchor="middle" x="674" y="-107.3" font-family="Times,serif" font-size="14.00">Report</text>
</g>
<!-- Event -->
<g id="node6" class="node"><title>Event</title>
<ellipse fill="none" stroke="black" cx="758" cy="-111" rx="31.2965" ry="18"/>
<text text-anchor="middle" x="758" y="-107.3" font-family="Times,serif" font-size="14.00">Event</text>
</g>
<!-- Genetic -->
<g id="node7" class="node"><title>Genetic</title>
<ellipse fill="none" stroke="black" cx="846" cy="-111" rx="38.0212" ry="18"/>
<text text-anchor="middle" x="846" y="-107.3" font-family="Times,serif" font-size="14.00">Genetic</text>
</g>
<!-- Identity -->
<g id="node8" class="node"><title>Identity</title>
<ellipse fill="none" stroke="black" cx="999" cy="-18" rx="38.0212" ry="18"/>
<text text-anchor="middle" x="999" y="-14.3" font-family="Times,serif" font-size="14.00">Identity</text>
</g>
<!-- LastSeen -->
<g id="node9" class="node"><title>LastSeen</title>
<ellipse fill="none" stroke="black" cx="945" cy="-111" rx="42.3456" ry="18"/>
<text text-anchor="middle" x="945" y="-107.3" font-family="Times,serif" font-size="14.00">LastSeen</text>
</g>
<!-- LastSeen&#45;&gt;Identity -->
<g id="edge1" class="edge"><title>LastSeen&#45;&gt;Identity</title>
<path fill="none" stroke="#51d8fa" d="M959.03,-86.3571C967.009,-72.9106 976.971,-56.1238 984.953,-42.6724"/>
<ellipse fill="none" stroke="#51d8fa" cx="956.946" cy="-89.8693" rx="4.00002" ry="4.00002"/>
<ellipse fill="#51d8fa" stroke="#51d8fa" cx="987.117" cy="-39.0249" rx="4.00002" ry="4.00002"/>
</g>
<!-- Biography -->
<g id="node10" class="node"><title>Biography</title>
<ellipse fill="none" stroke="black" cx="1054" cy="-111" rx="48.1437" ry="18"/>
<text text-anchor="middle" x="1054" y="-107.3" font-family="Times,serif" font-size="14.00">Biography</text>
</g>
<!-- Biography&#45;&gt;Identity -->
<g id="edge2" class="edge"><title>Biography&#45;&gt;Identity</title>
<path fill="none" stroke="#3da793" d="M1039.71,-86.3571C1031.58,-72.9106 1021.44,-56.1238 1013.31,-42.6724"/>
<ellipse fill="none" stroke="#3da793" cx="1041.84" cy="-89.8859" rx="4.00002" ry="4.00002"/>
<ellipse fill="#3da793" stroke="#3da793" cx="1011.09" cy="-39.0083" rx="4.00002" ry="4.00002"/>
</g>
<!-- Perpetrator -->
<g id="node11" class="node"><title>Perpetrator</title>
<ellipse fill="none" stroke="black" cx="1170" cy="-111" rx="50.0684" ry="18"/>
<text text-anchor="middle" x="1170" y="-107.3" font-family="Times,serif" font-size="14.00">Perpetrator</text>
</g>
</g>
</svg>
